<svg xmlns="http://www.w3.org/2000/svg" xmlns:ns1="http://www.w3.org/1999/xlink" height="264.131875pt" version="1.1" viewBox="0 0 352.7 264.131875" width="352.7pt">
 <defs>
  <style type="text/css">
*{stroke-linecap:butt;stroke-linejoin:round;white-space:pre;}
  </style>
 </defs>
 <g id="figure_1">
  <g id="patch_1">
   <path d="M 0 264.131875  L 352.7 264.131875  L 352.7 0  L 0 0  z " style="fill:none;" />
  </g>
  <g id="axes_1">
   <g id="patch_2">
    <path d="M 10.7 224.64  L 345.5 224.64  L 345.5 7.2  L 10.7 7.2  z " style="fill:none;" />
   </g>
   <g id="matplotlib.axis_1">
    <g id="xtick_1">
     <g id="line2d_1">
      <defs>
       <path d="M 0 0  L 0 3.5  " id="m70a79983c7" style="stroke:#555555;stroke-width:0.8;" />
      </defs>
      <g>
       <use style="fill:#555555;stroke:#555555;stroke-width:0.8;" x="42.0875" y="224.64" ns1:href="#m70a79983c7" />
      </g>
     </g>
     <g id="text_1">
      <text style="text-anchor:middle;font-family:-apple-system,BlinkMacSystemFont,&quot;Segoe UI&quot;,Roboto,&quot;Helvetica Neue&quot;,Arial,&quot;Noto Sans&quot;,sans-serif,&quot;Apple Color Emoji&quot;,&quot;Segoe UI Emoji&quot;,&quot;Segoe UI Symbol&quot;,&quot;Noto Color Emoji&quot;;font-size:0.7em;color:#6c757d" transform="rotate(-0, 42.0875, 239.238437)" x="42.0875" y="239.238437">55</text>
     </g>
    </g>
    <g id="xtick_2">
     <g id="line2d_2">
      <g>
       <use style="fill:#555555;stroke:#555555;stroke-width:0.8;" x="94.4" y="224.64" ns1:href="#m70a79983c7" />
      </g>
     </g>
     <g id="text_2">
      <text style="text-anchor:middle;font-family:-apple-system,BlinkMacSystemFont,&quot;Segoe UI&quot;,Roboto,&quot;Helvetica Neue&quot;,Arial,&quot;Noto Sans&quot;,sans-serif,&quot;Apple Color Emoji&quot;,&quot;Segoe UI Emoji&quot;,&quot;Segoe UI Symbol&quot;,&quot;Noto Color Emoji&quot;;font-size:0.7em;color:#6c757d" transform="rotate(-0, 94.4, 239.238437)" x="94.4" y="239.238437">60</text>
     </g>
    </g>
    <g id="xtick_3">
     <g id="line2d_3">
      <g>
       <use style="fill:#555555;stroke:#555555;stroke-width:0.8;" x="146.7125" y="224.64" ns1:href="#m70a79983c7" />
      </g>
     </g>
     <g id="text_3">
      <text style="text-anchor:middle;font-family:-apple-system,BlinkMacSystemFont,&quot;Segoe UI&quot;,Roboto,&quot;Helvetica Neue&quot;,Arial,&quot;Noto Sans&quot;,sans-serif,&quot;Apple Color Emoji&quot;,&quot;Segoe UI Emoji&quot;,&quot;Segoe UI Symbol&quot;,&quot;Noto Color Emoji&quot;;font-size:0.7em;color:#6c757d" transform="rotate(-0, 146.7125, 239.238437)" x="146.7125" y="239.238437">65</text>
     </g>
    </g>
    <g id="xtick_4">
     <g id="line2d_4">
      <g>
       <use style="fill:#555555;stroke:#555555;stroke-width:0.8;" x="199.025" y="224.64" ns1:href="#m70a79983c7" />
      </g>
     </g>
     <g id="text_4">
      <text style="text-anchor:middle;font-family:-apple-system,BlinkMacSystemFont,&quot;Segoe UI&quot;,Roboto,&quot;Helvetica Neue&quot;,Arial,&quot;Noto Sans&quot;,sans-serif,&quot;Apple Color Emoji&quot;,&quot;Segoe UI Emoji&quot;,&quot;Segoe UI Symbol&quot;,&quot;Noto Color Emoji&quot;;font-size:0.7em;color:#6c757d" transform="rotate(-0, 199.025, 239.238437)" x="199.025" y="239.238437">70</text>
     </g>
    </g>
    <g id="xtick_5">
     <g id="line2d_5">
      <g>
       <use style="fill:#555555;stroke:#555555;stroke-width:0.8;" x="251.3375" y="224.64" ns1:href="#m70a79983c7" />
      </g>
     </g>
     <g id="text_5">
      <text style="text-anchor:middle;font-family:-apple-system,BlinkMacSystemFont,&quot;Segoe UI&quot;,Roboto,&quot;Helvetica Neue&quot;,Arial,&quot;Noto Sans&quot;,sans-serif,&quot;Apple Color Emoji&quot;,&quot;Segoe UI Emoji&quot;,&quot;Segoe UI Symbol&quot;,&quot;Noto Color Emoji&quot;;font-size:0.7em;color:#6c757d" transform="rotate(-0, 251.3375, 239.238437)" x="251.3375" y="239.238437">75</text>
     </g>
    </g>
    <g id="xtick_6">
     <g id="line2d_6">
      <g>
       <use style="fill:#555555;stroke:#555555;stroke-width:0.8;" x="303.65" y="224.64" ns1:href="#m70a79983c7" />
      </g>
     </g>
     <g id="text_6">
      <text style="text-anchor:middle;font-family:-apple-system,BlinkMacSystemFont,&quot;Segoe UI&quot;,Roboto,&quot;Helvetica Neue&quot;,Arial,&quot;Noto Sans&quot;,sans-serif,&quot;Apple Color Emoji&quot;,&quot;Segoe UI Emoji&quot;,&quot;Segoe UI Symbol&quot;,&quot;Noto Color Emoji&quot;;font-size:0.7em;color:#6c757d" transform="rotate(-0, 303.65, 239.238437)" x="303.65" y="239.238437">80</text>
     </g>
    </g>
    <g id="text_7">
     <text style="text-anchor:middle;font-family:-apple-system,BlinkMacSystemFont,&quot;Segoe UI&quot;,Roboto,&quot;Helvetica Neue&quot;,Arial,&quot;Noto Sans&quot;,sans-serif,&quot;Apple Color Emoji&quot;,&quot;Segoe UI Emoji&quot;,&quot;Segoe UI Symbol&quot;,&quot;Noto Color Emoji&quot;;font-size:0.7em;color:#6c757d" transform="rotate(-0, 178.1, 254.43625)" x="178.1" y="254.43625">Height (inches)</text>
    </g>
   </g>
   <g id="patch_3">
    <path clip-path="url(#pb2e403e0a3)" d="M -28.70159 224.64  L -24.495884 224.64  L -24.495884 224.634806  L -28.70159 224.634806  z " style="fill:#4b89b9;opacity:0.4;" />
   </g>
   <g id="patch_4">
    <path clip-path="url(#pb2e403e0a3)" d="M -24.495884 224.64  L -20.290178 224.64  L -20.290178 224.64  L -24.495884 224.64  z " style="fill:#4b89b9;opacity:0.4;" />
   </g>
   <g id="patch_5">
    <path clip-path="url(#pb2e403e0a3)" d="M -20.290178 224.64  L -16.084472 224.64  L -16.084472 224.64  L -20.290178 224.64  z " style="fill:#4b89b9;opacity:0.4;" />
   </g>
   <g id="patch_6">
    <path clip-path="url(#pb2e403e0a3)" d="M -16.084472 224.64  L -11.878766 224.64  L -11.878766 224.64  L -16.084472 224.64  z " style="fill:#4b89b9;opacity:0.4;" />
   </g>
   <g id="patch_7">
    <path clip-path="url(#pb2e403e0a3)" d="M -11.878766 224.64  L -7.67306 224.64  L -7.67306 224.64  L -11.878766 224.64  z " style="fill:#4b89b9;opacity:0.4;" />
   </g>
   <g id="patch_8">
    <path clip-path="url(#pb2e403e0a3)" d="M -7.67306 224.64  L -3.467354 224.64  L -3.467354 224.64  L -7.67306 224.64  z " style="fill:#4b89b9;opacity:0.4;" />
   </g>
   <g id="patch_9">
    <path clip-path="url(#pb2e403e0a3)" d="M -3.467354 224.64  L 0.738352 224.64  L 0.738352 224.634806  L -3.467354 224.634806  z " style="fill:#4b89b9;opacity:0.4;" />
   </g>
   <g id="patch_10">
    <path clip-path="url(#pb2e403e0a3)" d="M 0.738352 224.64  L 4.944059 224.64  L 4.944059 224.634806  L 0.738352 224.634806  z " style="fill:#4b89b9;opacity:0.4;" />
   </g>
   <g id="patch_11">
    <path clip-path="url(#pb2e403e0a3)" d="M 4.944059 224.64  L 9.149765 224.64  L 9.149765 224.634806  L 4.944059 224.634806  z " style="fill:#4b89b9;opacity:0.4;" />
   </g>
   <g id="patch_12">
    <path clip-path="url(#pb2e403e0a3)" d="M 9.149765 224.64  L 13.355471 224.64  L 13.355471 224.624418  L 9.149765 224.624418  z " style="fill:#4b89b9;opacity:0.4;" />
   </g>
   <g id="patch_13">
    <path clip-path="url(#pb2e403e0a3)" d="M 13.355471 224.64  L 17.561177 224.64  L 17.561177 224.619223  L 13.355471 224.619223  z " style="fill:#4b89b9;opacity:0.4;" />
   </g>
   <g id="patch_14">
    <path clip-path="url(#pb2e403e0a3)" d="M 17.561177 224.64  L 21.766883 224.64  L 21.766883 224.614029  L 17.561177 224.614029  z " style="fill:#4b89b9;opacity:0.4;" />
   </g>
   <g id="patch_15">
    <path clip-path="url(#pb2e403e0a3)" d="M 21.766883 224.64  L 25.972589 224.64  L 25.972589 224.608835  L 21.766883 224.608835  z " style="fill:#4b89b9;opacity:0.4;" />
   </g>
   <g id="patch_16">
    <path clip-path="url(#pb2e403e0a3)" d="M 25.972589 224.64  L 30.178295 224.64  L 30.178295 224.593253  L 25.972589 224.593253  z " style="fill:#4b89b9;opacity:0.4;" />
   </g>
   <g id="patch_17">
    <path clip-path="url(#pb2e403e0a3)" d="M 30.178295 224.64  L 34.384002 224.64  L 34.384002 224.546505  L 30.178295 224.546505  z " style="fill:#4b89b9;opacity:0.4;" />
   </g>
   <g id="patch_18">
    <path clip-path="url(#pb2e403e0a3)" d="M 34.384002 224.64  L 38.589708 224.64  L 38.589708 224.567282  L 34.384002 224.567282  z " style="fill:#4b89b9;opacity:0.4;" />
   </g>
   <g id="patch_19">
    <path clip-path="url(#pb2e403e0a3)" d="M 38.589708 224.64  L 42.795414 224.64  L 42.795414 224.458205  L 38.589708 224.458205  z " style="fill:#4b89b9;opacity:0.4;" />
   </g>
   <g id="patch_20">
    <path clip-path="url(#pb2e403e0a3)" d="M 42.795414 224.64  L 47.00112 224.64  L 47.00112 224.401069  L 42.795414 224.401069  z " style="fill:#4b89b9;opacity:0.4;" />
   </g>
   <g id="patch_21">
    <path clip-path="url(#pb2e403e0a3)" d="M 47.00112 224.64  L 51.206826 224.64  L 51.206826 224.260827  L 47.00112 224.260827  z " style="fill:#4b89b9;opacity:0.4;" />
   </g>
   <g id="patch_22">
    <path clip-path="url(#pb2e403e0a3)" d="M 51.206826 224.64  L 55.412532 224.64  L 55.412532 224.172526  L 51.206826 224.172526  z " style="fill:#4b89b9;opacity:0.4;" />
   </g>
   <g id="patch_23">
    <path clip-path="url(#pb2e403e0a3)" d="M 55.412532 224.64  L 59.618238 224.64  L 59.618238 223.886848  L 55.412532 223.886848  z " style="fill:#4b89b9;opacity:0.4;" />
   </g>
   <g id="patch_24">
    <path clip-path="url(#pb2e403e0a3)" d="M 59.618238 224.64  L 63.823944 224.64  L 63.823944 223.632334  L 59.618238 223.632334  z " style="fill:#4b89b9;opacity:0.4;" />
   </g>
   <g id="patch_25">
    <path clip-path="url(#pb2e403e0a3)" d="M 63.823944 224.64  L 68.029651 224.64  L 68.029651 223.268743  L 63.823944 223.268743  z " style="fill:#4b89b9;opacity:0.4;" />
   </g>
   <g id="patch_26">
    <path clip-path="url(#pb2e403e0a3)" d="M 68.029651 224.64  L 72.235357 224.64  L 72.235357 222.868794  L 68.029651 222.868794  z " style="fill:#4b89b9;opacity:0.4;" />
   </g>
   <g id="patch_27">
    <path clip-path="url(#pb2e403e0a3)" d="M 72.235357 224.64  L 76.441063 224.64  L 76.441063 222.255883  L 72.235357 222.255883  z " style="fill:#4b89b9;opacity:0.4;" />
   </g>
   <g id="patch_28">
    <path clip-path="url(#pb2e403e0a3)" d="M 76.441063 224.64  L 80.646769 224.64  L 80.646769 221.331324  L 76.441063 221.331324  z " style="fill:#4b89b9;opacity:0.4;" />
   </g>
   <g id="patch_29">
    <path clip-path="url(#pb2e403e0a3)" d="M 80.646769 224.64  L 84.852475 224.64  L 84.852475 220.027592  L 80.646769 220.027592  z " style="fill:#4b89b9;opacity:0.4;" />
   </g>
   <g id="patch_30">
    <path clip-path="url(#pb2e403e0a3)" d="M 84.852475 224.64  L 89.058181 224.64  L 89.058181 218.869295  L 84.852475 218.869295  z " style="fill:#4b89b9;opacity:0.4;" />
   </g>
   <g id="patch_31">
    <path clip-path="url(#pb2e403e0a3)" d="M 89.058181 224.64  L 93.263887 224.64  L 93.263887 216.983817  L 89.058181 216.983817  z " style="fill:#4b89b9;opacity:0.4;" />
   </g>
   <g id="patch_32">
    <path clip-path="url(#pb2e403e0a3)" d="M 93.263887 224.64  L 97.469594 224.64  L 97.469594 215.077563  L 93.263887 215.077563  z " style="fill:#4b89b9;opacity:0.4;" />
   </g>
   <g id="patch_33">
    <path clip-path="url(#pb2e403e0a3)" d="M 97.469594 224.64  L 101.6753 224.64  L 101.6753 212.174031  L 97.469594 212.174031  z " style="fill:#4b89b9;opacity:0.4;" />
   </g>
   <g id="patch_34">
    <path clip-path="url(#pb2e403e0a3)" d="M 101.6753 224.64  L 105.881006 224.64  L 105.881006 209.280887  L 101.6753 209.280887  z " style="fill:#4b89b9;opacity:0.4;" />
   </g>
   <g id="patch_35">
    <path clip-path="url(#pb2e403e0a3)" d="M 105.881006 224.64  L 110.086712 224.64  L 110.086712 205.535903  L 105.881006 205.535903  z " style="fill:#4b89b9;opacity:0.4;" />
   </g>
   <g id="patch_36">
    <path clip-path="url(#pb2e403e0a3)" d="M 110.086712 224.64  L 114.292418 224.64  L 114.292418 200.18073  L 110.086712 200.18073  z " style="fill:#4b89b9;opacity:0.4;" />
   </g>
   <g id="patch_37">
    <path clip-path="url(#pb2e403e0a3)" d="M 114.292418 224.64  L 118.498124 224.64  L 118.498124 194.685316  L 114.292418 194.685316  z " style="fill:#4b89b9;opacity:0.4;" />
   </g>
   <g id="patch_38">
    <path clip-path="url(#pb2e403e0a3)" d="M 118.498124 224.64  L 122.70383 224.64  L 122.70383 188.73801  L 118.498124 188.73801  z " style="fill:#4b89b9;opacity:0.4;" />
   </g>
   <g id="patch_39">
    <path clip-path="url(#pb2e403e0a3)" d="M 122.70383 224.64  L 126.909536 224.64  L 126.909536 180.749401  L 122.70383 180.749401  z " style="fill:#4b89b9;opacity:0.4;" />
   </g>
   <g id="patch_40">
    <path clip-path="url(#pb2e403e0a3)" d="M 126.909536 224.64  L 131.115243 224.64  L 131.115243 173.191907  L 126.909536 173.191907  z " style="fill:#4b89b9;opacity:0.4;" />
   </g>
   <g id="patch_41">
    <path clip-path="url(#pb2e403e0a3)" d="M 131.115243 224.64  L 135.320949 224.64  L 135.320949 164.387817  L 131.115243 164.387817  z " style="fill:#4b89b9;opacity:0.4;" />
   </g>
   <g id="patch_42">
    <path clip-path="url(#pb2e403e0a3)" d="M 135.320949 224.64  L 139.526655 224.64  L 139.526655 153.848879  L 135.320949 153.848879  z " style="fill:#4b89b9;opacity:0.4;" />
   </g>
   <g id="patch_43">
    <path clip-path="url(#pb2e403e0a3)" d="M 139.526655 224.64  L 143.732361 224.64  L 143.732361 141.668589  L 139.526655 141.668589  z " style="fill:#4b89b9;opacity:0.4;" />
   </g>
   <g id="patch_44">
    <path clip-path="url(#pb2e403e0a3)" d="M 143.732361 224.64  L 147.938067 224.64  L 147.938067 132.677509  L 143.732361 132.677509  z " style="fill:#4b89b9;opacity:0.4;" />
   </g>
   <g id="patch_45">
    <path clip-path="url(#pb2e403e0a3)" d="M 147.938067 224.64  L 152.143773 224.64  L 152.143773 118.055966  L 147.938067 118.055966  z " style="fill:#4b89b9;opacity:0.4;" />
   </g>
   <g id="patch_46">
    <path clip-path="url(#pb2e403e0a3)" d="M 152.143773 224.64  L 156.349479 224.64  L 156.349479 107.335233  L 152.143773 107.335233  z " style="fill:#4b89b9;opacity:0.4;" />
   </g>
   <g id="patch_47">
    <path clip-path="url(#pb2e403e0a3)" d="M 156.349479 224.64  L 160.555186 224.64  L 160.555186 94.157665  L 156.349479 94.157665  z " style="fill:#4b89b9;opacity:0.4;" />
   </g>
   <g id="patch_48">
    <path clip-path="url(#pb2e403e0a3)" d="M 160.555186 224.64  L 164.760892 224.64  L 164.760892 81.795579  L 160.555186 81.795579  z " style="fill:#4b89b9;opacity:0.4;" />
   </g>
   <g id="patch_49">
    <path clip-path="url(#pb2e403e0a3)" d="M 164.760892 224.64  L 168.966598 224.64  L 168.966598 68.550487  L 164.760892 68.550487  z " style="fill:#4b89b9;opacity:0.4;" />
   </g>
   <g id="patch_50">
    <path clip-path="url(#pb2e403e0a3)" d="M 168.966598 224.64  L 173.172304 224.64  L 173.172304 57.840142  L 168.966598 57.840142  z " style="fill:#4b89b9;opacity:0.4;" />
   </g>
   <g id="patch_51">
    <path clip-path="url(#pb2e403e0a3)" d="M 173.172304 224.64  L 177.37801 224.64  L 177.37801 48.906198  L 173.172304 48.906198  z " style="fill:#4b89b9;opacity:0.4;" />
   </g>
   <g id="patch_52">
    <path clip-path="url(#pb2e403e0a3)" d="M 177.37801 224.64  L 181.583716 224.64  L 181.583716 37.432312  L 177.37801 37.432312  z " style="fill:#4b89b9;opacity:0.4;" />
   </g>
   <g id="patch_53">
    <path clip-path="url(#pb2e403e0a3)" d="M 181.583716 224.64  L 185.789422 224.64  L 185.789422 27.96337  L 181.583716 27.96337  z " style="fill:#4b89b9;opacity:0.4;" />
   </g>
   <g id="patch_54">
    <path clip-path="url(#pb2e403e0a3)" d="M 185.789422 224.64  L 189.995128 224.64  L 189.995128 25.283186  L 185.789422 25.283186  z " style="fill:#4b89b9;opacity:0.4;" />
   </g>
   <g id="patch_55">
    <path clip-path="url(#pb2e403e0a3)" d="M 189.995128 224.64  L 194.200835 224.64  L 194.200835 20.094227  L 189.995128 20.094227  z " style="fill:#4b89b9;opacity:0.4;" />
   </g>
   <g id="patch_56">
    <path clip-path="url(#pb2e403e0a3)" d="M 194.200835 224.64  L 198.406541 224.64  L 198.406541 17.554286  L 194.200835 17.554286  z " style="fill:#4b89b9;opacity:0.4;" />
   </g>
   <g id="patch_57">
    <path clip-path="url(#pb2e403e0a3)" d="M 198.406541 224.64  L 202.612247 224.64  L 202.612247 18.276273  L 198.406541 18.276273  z " style="fill:#4b89b9;opacity:0.4;" />
   </g>
   <g id="patch_58">
    <path clip-path="url(#pb2e403e0a3)" d="M 202.612247 224.64  L 206.817953 224.64  L 206.817953 20.312381  L 202.612247 20.312381  z " style="fill:#4b89b9;opacity:0.4;" />
   </g>
   <g id="patch_59">
    <path clip-path="url(#pb2e403e0a3)" d="M 206.817953 224.64  L 211.023659 224.64  L 211.023659 24.275521  L 206.817953 24.275521  z " style="fill:#4b89b9;opacity:0.4;" />
   </g>
   <g id="patch_60">
    <path clip-path="url(#pb2e403e0a3)" d="M 211.023659 224.64  L 215.229365 224.64  L 215.229365 26.851821  L 211.023659 26.851821  z " style="fill:#4b89b9;opacity:0.4;" />
   </g>
   <g id="patch_61">
    <path clip-path="url(#pb2e403e0a3)" d="M 215.229365 224.64  L 219.435071 224.64  L 219.435071 35.619552  L 215.229365 35.619552  z " style="fill:#4b89b9;opacity:0.4;" />
   </g>
   <g id="patch_62">
    <path clip-path="url(#pb2e403e0a3)" d="M 219.435071 224.64  L 223.640778 224.64  L 223.640778 42.990056  L 219.435071 42.990056  z " style="fill:#4b89b9;opacity:0.4;" />
   </g>
   <g id="patch_63">
    <path clip-path="url(#pb2e403e0a3)" d="M 223.640778 224.64  L 227.846484 224.64  L 227.846484 55.668986  L 223.640778 55.668986  z " style="fill:#4b89b9;opacity:0.4;" />
   </g>
   <g id="patch_64">
    <path clip-path="url(#pb2e403e0a3)" d="M 227.846484 224.64  L 232.05219 224.64  L 232.05219 66.467631  L 227.846484 66.467631  z " style="fill:#4b89b9;opacity:0.4;" />
   </g>
   <g id="patch_65">
    <path clip-path="url(#pb2e403e0a3)" d="M 232.05219 224.64  L 236.257896 224.64  L 236.257896 77.385742  L 232.05219 77.385742  z " style="fill:#4b89b9;opacity:0.4;" />
   </g>
   <g id="patch_66">
    <path clip-path="url(#pb2e403e0a3)" d="M 236.257896 224.64  L 240.463602 224.64  L 240.463602 91.181415  L 236.257896 91.181415  z " style="fill:#4b89b9;opacity:0.4;" />
   </g>
   <g id="patch_67">
    <path clip-path="url(#pb2e403e0a3)" d="M 240.463602 224.64  L 244.669308 224.64  L 244.669308 102.073555  L 240.463602 102.073555  z " style="fill:#4b89b9;opacity:0.4;" />
   </g>
   <g id="patch_68">
    <path clip-path="url(#pb2e403e0a3)" d="M 244.669308 224.64  L 248.875014 224.64  L 248.875014 114.430447  L 244.669308 114.430447  z " style="fill:#4b89b9;opacity:0.4;" />
   </g>
   <g id="patch_69">
    <path clip-path="url(#pb2e403e0a3)" d="M 248.875014 224.64  L 253.08072 224.64  L 253.08072 127.94044  L 248.875014 127.94044  z " style="fill:#4b89b9;opacity:0.4;" />
   </g>
   <g id="patch_70">
    <path clip-path="url(#pb2e403e0a3)" d="M 253.08072 224.64  L 257.286427 224.64  L 257.286427 140.463545  L 253.08072 140.463545  z " style="fill:#4b89b9;opacity:0.4;" />
   </g>
   <g id="patch_71">
    <path clip-path="url(#pb2e403e0a3)" d="M 257.286427 224.64  L 261.492133 224.64  L 261.492133 150.981706  L 257.286427 150.981706  z " style="fill:#4b89b9;opacity:0.4;" />
   </g>
   <g id="patch_72">
    <path clip-path="url(#pb2e403e0a3)" d="M 261.492133 224.64  L 265.697839 224.64  L 265.697839 162.149137  L 261.492133 162.149137  z " style="fill:#4b89b9;opacity:0.4;" />
   </g>
   <g id="patch_73">
    <path clip-path="url(#pb2e403e0a3)" d="M 265.697839 224.64  L 269.903545 224.64  L 269.903545 170.615607  L 265.697839 170.615607  z " style="fill:#4b89b9;opacity:0.4;" />
   </g>
   <g id="patch_74">
    <path clip-path="url(#pb2e403e0a3)" d="M 269.903545 224.64  L 274.109251 224.64  L 274.109251 179.746929  L 269.903545 179.746929  z " style="fill:#4b89b9;opacity:0.4;" />
   </g>
   <g id="patch_75">
    <path clip-path="url(#pb2e403e0a3)" d="M 274.109251 224.64  L 278.314957 224.64  L 278.314957 186.727872  L 274.109251 186.727872  z " style="fill:#4b89b9;opacity:0.4;" />
   </g>
   <g id="patch_76">
    <path clip-path="url(#pb2e403e0a3)" d="M 278.314957 224.64  L 282.520663 224.64  L 282.520663 192.768673  L 278.314957 192.768673  z " style="fill:#4b89b9;opacity:0.4;" />
   </g>
   <g id="patch_77">
    <path clip-path="url(#pb2e403e0a3)" d="M 282.520663 224.64  L 286.72637 224.64  L 286.72637 199.032822  L 282.520663 199.032822  z " style="fill:#4b89b9;opacity:0.4;" />
   </g>
   <g id="patch_78">
    <path clip-path="url(#pb2e403e0a3)" d="M 286.72637 224.64  L 290.932076 224.64  L 290.932076 203.930909  L 286.72637 203.930909  z " style="fill:#4b89b9;opacity:0.4;" />
   </g>
   <g id="patch_79">
    <path clip-path="url(#pb2e403e0a3)" d="M 290.932076 224.64  L 295.137782 224.64  L 295.137782 207.94599  L 290.932076 207.94599  z " style="fill:#4b89b9;opacity:0.4;" />
   </g>
   <g id="patch_80">
    <path clip-path="url(#pb2e403e0a3)" d="M 295.137782 224.64  L 299.343488 224.64  L 299.343488 211.498791  L 295.137782 211.498791  z " style="fill:#4b89b9;opacity:0.4;" />
   </g>
   <g id="patch_81">
    <path clip-path="url(#pb2e403e0a3)" d="M 299.343488 224.64  L 303.549194 224.64  L 303.549194 214.262081  L 299.343488 214.262081  z " style="fill:#4b89b9;opacity:0.4;" />
   </g>
   <g id="patch_82">
    <path clip-path="url(#pb2e403e0a3)" d="M 303.549194 224.64  L 307.7549 224.64  L 307.7549 216.381296  L 303.549194 216.381296  z " style="fill:#4b89b9;opacity:0.4;" />
   </g>
   <g id="patch_83">
    <path clip-path="url(#pb2e403e0a3)" d="M 307.7549 224.64  L 311.960606 224.64  L 311.960606 218.178473  L 307.7549 218.178473  z " style="fill:#4b89b9;opacity:0.4;" />
   </g>
   <g id="patch_84">
    <path clip-path="url(#pb2e403e0a3)" d="M 311.960606 224.64  L 316.166312 224.64  L 316.166312 219.799049  L 311.960606 219.799049  z " style="fill:#4b89b9;opacity:0.4;" />
   </g>
   <g id="patch_85">
    <path clip-path="url(#pb2e403e0a3)" d="M 316.166312 224.64  L 320.372019 224.64  L 320.372019 221.175499  L 316.166312 221.175499  z " style="fill:#4b89b9;opacity:0.4;" />
   </g>
   <g id="patch_86">
    <path clip-path="url(#pb2e403e0a3)" d="M 320.372019 224.64  L 324.577725 224.64  L 324.577725 221.902681  L 320.372019 221.902681  z " style="fill:#4b89b9;opacity:0.4;" />
   </g>
   <g id="patch_87">
    <path clip-path="url(#pb2e403e0a3)" d="M 324.577725 224.64  L 328.783431 224.64  L 328.783431 222.764911  L 324.577725 222.764911  z " style="fill:#4b89b9;opacity:0.4;" />
   </g>
   <g id="patch_88">
    <path clip-path="url(#pb2e403e0a3)" d="M 328.783431 224.64  L 332.989137 224.64  L 332.989137 223.221996  L 328.783431 223.221996  z " style="fill:#4b89b9;opacity:0.4;" />
   </g>
   <g id="patch_89">
    <path clip-path="url(#pb2e403e0a3)" d="M 332.989137 224.64  L 337.194843 224.64  L 337.194843 223.512869  L 332.989137 223.512869  z " style="fill:#4b89b9;opacity:0.4;" />
   </g>
   <g id="patch_90">
    <path clip-path="url(#pb2e403e0a3)" d="M 337.194843 224.64  L 341.400549 224.64  L 341.400549 223.793353  L 337.194843 223.793353  z " style="fill:#4b89b9;opacity:0.4;" />
   </g>
   <g id="patch_91">
    <path clip-path="url(#pb2e403e0a3)" d="M 341.400549 224.64  L 345.606255 224.64  L 345.606255 224.094614  L 341.400549 224.094614  z " style="fill:#4b89b9;opacity:0.4;" />
   </g>
   <g id="patch_92">
    <path clip-path="url(#pb2e403e0a3)" d="M 345.606255 224.64  L 349.811962 224.64  L 349.811962 224.307574  L 345.606255 224.307574  z " style="fill:#4b89b9;opacity:0.4;" />
   </g>
   <g id="patch_93">
    <path clip-path="url(#pb2e403e0a3)" d="M 349.811962 224.64  L 354.017668 224.64  L 354.017668 224.338739  L 349.811962 224.338739  z " style="fill:#4b89b9;opacity:0.4;" />
   </g>
   <g id="patch_94">
    <path clip-path="url(#pb2e403e0a3)" d="M 354.017668 224.64  L 358.223374 224.64  L 358.223374 224.458205  L 354.017668 224.458205  z " style="fill:#4b89b9;opacity:0.4;" />
   </g>
   <g id="patch_95">
    <path clip-path="url(#pb2e403e0a3)" d="M 358.223374 224.64  L 362.42908 224.64  L 362.42908 224.541311  L 358.223374 224.541311  z " style="fill:#4b89b9;opacity:0.4;" />
   </g>
   <g id="patch_96">
    <path clip-path="url(#pb2e403e0a3)" d="M 362.42908 224.64  L 366.634786 224.64  L 366.634786 224.567282  L 362.42908 224.567282  z " style="fill:#4b89b9;opacity:0.4;" />
   </g>
   <g id="patch_97">
    <path clip-path="url(#pb2e403e0a3)" d="M 366.634786 224.64  L 370.840492 224.64  L 370.840492 224.588058  L 366.634786 224.588058  z " style="fill:#4b89b9;opacity:0.4;" />
   </g>
   <g id="patch_98">
    <path clip-path="url(#pb2e403e0a3)" d="M 370.840492 224.64  L 375.046198 224.64  L 375.046198 224.629612  L 370.840492 224.629612  z " style="fill:#4b89b9;opacity:0.4;" />
   </g>
   <g id="patch_99">
    <path clip-path="url(#pb2e403e0a3)" d="M 375.046198 224.64  L 379.251904 224.64  L 379.251904 224.593253  L 375.046198 224.593253  z " style="fill:#4b89b9;opacity:0.4;" />
   </g>
   <g id="patch_100">
    <path clip-path="url(#pb2e403e0a3)" d="M 379.251904 224.64  L 383.457611 224.64  L 383.457611 224.629612  L 379.251904 224.629612  z " style="fill:#4b89b9;opacity:0.4;" />
   </g>
   <g id="patch_101">
    <path clip-path="url(#pb2e403e0a3)" d="M 383.457611 224.64  L 387.663317 224.64  L 387.663317 224.64  L 383.457611 224.64  z " style="fill:#4b89b9;opacity:0.4;" />
   </g>
   <g id="patch_102">
    <path clip-path="url(#pb2e403e0a3)" d="M 387.663317 224.64  L 391.869023 224.64  L 391.869023 224.634806  L 387.663317 224.634806  z " style="fill:#4b89b9;opacity:0.4;" />
   </g>
   <g id="patch_103">
    <path clip-path="url(#pb2e403e0a3)" d="M -26.123309 224.64  L -22.600422 224.64  L -22.600422 224.629612  L -26.123309 224.629612  z " style="fill:#d2553e;opacity:0.4;" />
   </g>
   <g id="patch_104">
    <path clip-path="url(#pb2e403e0a3)" d="M -22.600422 224.64  L -19.077535 224.64  L -19.077535 224.634806  L -22.600422 224.634806  z " style="fill:#d2553e;opacity:0.4;" />
   </g>
   <g id="patch_105">
    <path clip-path="url(#pb2e403e0a3)" d="M -19.077535 224.64  L -15.554648 224.64  L -15.554648 224.624418  L -19.077535 224.624418  z " style="fill:#d2553e;opacity:0.4;" />
   </g>
   <g id="patch_106">
    <path clip-path="url(#pb2e403e0a3)" d="M -15.554648 224.64  L -12.031761 224.64  L -12.031761 224.629612  L -15.554648 224.629612  z " style="fill:#d2553e;opacity:0.4;" />
   </g>
   <g id="patch_107">
    <path clip-path="url(#pb2e403e0a3)" d="M -12.031761 224.64  L -8.508874 224.64  L -8.508874 224.624418  L -12.031761 224.624418  z " style="fill:#d2553e;opacity:0.4;" />
   </g>
   <g id="patch_108">
    <path clip-path="url(#pb2e403e0a3)" d="M -8.508874 224.64  L -4.985987 224.64  L -4.985987 224.614029  L -8.508874 224.614029  z " style="fill:#d2553e;opacity:0.4;" />
   </g>
   <g id="patch_109">
    <path clip-path="url(#pb2e403e0a3)" d="M -4.985987 224.64  L -1.4631 224.64  L -1.4631 224.593253  L -4.985987 224.593253  z " style="fill:#d2553e;opacity:0.4;" />
   </g>
   <g id="patch_110">
    <path clip-path="url(#pb2e403e0a3)" d="M -1.4631 224.64  L 2.059787 224.64  L 2.059787 224.567282  L -1.4631 224.567282  z " style="fill:#d2553e;opacity:0.4;" />
   </g>
   <g id="patch_111">
    <path clip-path="url(#pb2e403e0a3)" d="M 2.059787 224.64  L 5.582674 224.64  L 5.582674 224.541311  L 2.059787 224.541311  z " style="fill:#d2553e;opacity:0.4;" />
   </g>
   <g id="patch_112">
    <path clip-path="url(#pb2e403e0a3)" d="M 5.582674 224.64  L 9.105561 224.64  L 9.105561 224.484175  L 5.582674 224.484175  z " style="fill:#d2553e;opacity:0.4;" />
   </g>
   <g id="patch_113">
    <path clip-path="url(#pb2e403e0a3)" d="M 9.105561 224.64  L 12.628447 224.64  L 12.628447 224.432234  L 9.105561 224.432234  z " style="fill:#d2553e;opacity:0.4;" />
   </g>
   <g id="patch_114">
    <path clip-path="url(#pb2e403e0a3)" d="M 12.628447 224.64  L 16.151334 224.64  L 16.151334 224.354322  L 12.628447 224.354322  z " style="fill:#d2553e;opacity:0.4;" />
   </g>
   <g id="patch_115">
    <path clip-path="url(#pb2e403e0a3)" d="M 16.151334 224.64  L 19.674221 224.64  L 19.674221 224.188109  L 16.151334 224.188109  z " style="fill:#d2553e;opacity:0.4;" />
   </g>
   <g id="patch_116">
    <path clip-path="url(#pb2e403e0a3)" d="M 19.674221 224.64  L 23.197108 224.64  L 23.197108 224.047866  L 19.674221 224.047866  z " style="fill:#d2553e;opacity:0.4;" />
   </g>
   <g id="patch_117">
    <path clip-path="url(#pb2e403e0a3)" d="M 23.197108 224.64  L 26.719995 224.64  L 26.719995 223.793353  L 23.197108 223.793353  z " style="fill:#d2553e;opacity:0.4;" />
   </g>
   <g id="patch_118">
    <path clip-path="url(#pb2e403e0a3)" d="M 26.719995 224.64  L 30.242882 224.64  L 30.242882 223.538839  L 26.719995 223.538839  z " style="fill:#d2553e;opacity:0.4;" />
   </g>
   <g id="patch_119">
    <path clip-path="url(#pb2e403e0a3)" d="M 30.242882 224.64  L 33.765769 224.64  L 33.765769 223.154472  L 30.242882 223.154472  z " style="fill:#d2553e;opacity:0.4;" />
   </g>
   <g id="patch_120">
    <path clip-path="url(#pb2e403e0a3)" d="M 33.765769 224.64  L 37.288656 224.64  L 37.288656 222.744134  L 33.765769 222.744134  z " style="fill:#d2553e;opacity:0.4;" />
   </g>
   <g id="patch_121">
    <path clip-path="url(#pb2e403e0a3)" d="M 37.288656 224.64  L 40.811543 224.64  L 40.811543 221.87671  L 37.288656 221.87671  z " style="fill:#d2553e;opacity:0.4;" />
   </g>
   <g id="patch_122">
    <path clip-path="url(#pb2e403e0a3)" d="M 40.811543 224.64  L 44.33443 224.64  L 44.33443 221.175499  L 40.811543 221.175499  z " style="fill:#d2553e;opacity:0.4;" />
   </g>
   <g id="patch_123">
    <path clip-path="url(#pb2e403e0a3)" d="M 44.33443 224.64  L 47.857317 224.64  L 47.857317 220.173028  L 44.33443 220.173028  z " style="fill:#d2553e;opacity:0.4;" />
   </g>
   <g id="patch_124">
    <path clip-path="url(#pb2e403e0a3)" d="M 47.857317 224.64  L 51.380204 224.64  L 51.380204 218.640752  L 47.857317 218.640752  z " style="fill:#d2553e;opacity:0.4;" />
   </g>
   <g id="patch_125">
    <path clip-path="url(#pb2e403e0a3)" d="M 51.380204 224.64  L 54.903091 224.64  L 54.903091 217.040953  L 51.380204 217.040953  z " style="fill:#d2553e;opacity:0.4;" />
   </g>
   <g id="patch_126">
    <path clip-path="url(#pb2e403e0a3)" d="M 54.903091 224.64  L 58.425978 224.64  L 58.425978 214.288052  L 54.903091 214.288052  z " style="fill:#d2553e;opacity:0.4;" />
   </g>
   <g id="patch_127">
    <path clip-path="url(#pb2e403e0a3)" d="M 58.425978 224.64  L 61.948865 224.64  L 61.948865 212.402574  L 58.425978 212.402574  z " style="fill:#d2553e;opacity:0.4;" />
   </g>
   <g id="patch_128">
    <path clip-path="url(#pb2e403e0a3)" d="M 61.948865 224.64  L 65.471752 224.64  L 65.471752 209.249723  L 61.948865 209.249723  z " style="fill:#d2553e;opacity:0.4;" />
   </g>
   <g id="patch_129">
    <path clip-path="url(#pb2e403e0a3)" d="M 65.471752 224.64  L 68.994639 224.64  L 68.994639 205.338525  L 65.471752 205.338525  z " style="fill:#d2553e;opacity:0.4;" />
   </g>
   <g id="patch_130">
    <path clip-path="url(#pb2e403e0a3)" d="M 68.994639 224.64  L 72.517526 224.64  L 72.517526 202.035043  L 68.994639 202.035043  z " style="fill:#d2553e;opacity:0.4;" />
   </g>
   <g id="patch_131">
    <path clip-path="url(#pb2e403e0a3)" d="M 72.517526 224.64  L 76.040413 224.64  L 76.040413 196.399386  L 72.517526 196.399386  z " style="fill:#d2553e;opacity:0.4;" />
   </g>
   <g id="patch_132">
    <path clip-path="url(#pb2e403e0a3)" d="M 76.040413 224.64  L 79.5633 224.64  L 79.5633 190.410527  L 76.040413 190.410527  z " style="fill:#d2553e;opacity:0.4;" />
   </g>
   <g id="patch_133">
    <path clip-path="url(#pb2e403e0a3)" d="M 79.5633 224.64  L 83.086187 224.64  L 83.086187 184.239872  L 79.5633 184.239872  z " style="fill:#d2553e;opacity:0.4;" />
   </g>
   <g id="patch_134">
    <path clip-path="url(#pb2e403e0a3)" d="M 83.086187 224.64  L 86.609074 224.64  L 86.609074 177.461502  L 83.086187 177.461502  z " style="fill:#d2553e;opacity:0.4;" />
   </g>
   <g id="patch_135">
    <path clip-path="url(#pb2e403e0a3)" d="M 86.609074 224.64  L 90.131961 224.64  L 90.131961 168.060084  L 86.609074 168.060084  z " style="fill:#d2553e;opacity:0.4;" />
   </g>
   <g id="patch_136">
    <path clip-path="url(#pb2e403e0a3)" d="M 90.131961 224.64  L 93.654848 224.64  L 93.654848 160.123417  L 90.131961 160.123417  z " style="fill:#d2553e;opacity:0.4;" />
   </g>
   <g id="patch_137">
    <path clip-path="url(#pb2e403e0a3)" d="M 93.654848 224.64  L 97.177735 224.64  L 97.177735 150.301272  L 93.654848 150.301272  z " style="fill:#d2553e;opacity:0.4;" />
   </g>
   <g id="patch_138">
    <path clip-path="url(#pb2e403e0a3)" d="M 97.177735 224.64  L 100.700622 224.64  L 100.700622 139.861023  L 97.177735 139.861023  z " style="fill:#d2553e;opacity:0.4;" />
   </g>
   <g id="patch_139">
    <path clip-path="url(#pb2e403e0a3)" d="M 100.700622 224.64  L 104.223509 224.64  L 104.223509 128.262478  L 100.700622 128.262478  z " style="fill:#d2553e;opacity:0.4;" />
   </g>
   <g id="patch_140">
    <path clip-path="url(#pb2e403e0a3)" d="M 104.223509 224.64  L 107.746396 224.64  L 107.746396 116.959999  L 104.223509 116.959999  z " style="fill:#d2553e;opacity:0.4;" />
   </g>
   <g id="patch_141">
    <path clip-path="url(#pb2e403e0a3)" d="M 107.746396 224.64  L 111.269283 224.64  L 111.269283 104.826456  L 107.746396 104.826456  z " style="fill:#d2553e;opacity:0.4;" />
   </g>
   <g id="patch_142">
    <path clip-path="url(#pb2e403e0a3)" d="M 111.269283 224.64  L 114.79217 224.64  L 114.79217 94.043393  L 111.269283 94.043393  z " style="fill:#d2553e;opacity:0.4;" />
   </g>
   <g id="patch_143">
    <path clip-path="url(#pb2e403e0a3)" d="M 114.79217 224.64  L 118.315057 224.64  L 118.315057 82.044898  L 114.79217 82.044898  z " style="fill:#d2553e;opacity:0.4;" />
   </g>
   <g id="patch_144">
    <path clip-path="url(#pb2e403e0a3)" d="M 118.315057 224.64  L 121.837944 224.64  L 121.837944 72.570762  L 118.315057 72.570762  z " style="fill:#d2553e;opacity:0.4;" />
   </g>
   <g id="patch_145">
    <path clip-path="url(#pb2e403e0a3)" d="M 121.837944 224.64  L 125.360831 224.64  L 125.360831 61.190371  L 121.837944 61.190371  z " style="fill:#d2553e;opacity:0.4;" />
   </g>
   <g id="patch_146">
    <path clip-path="url(#pb2e403e0a3)" d="M 125.360831 224.64  L 128.883718 224.64  L 128.883718 50.88517  L 125.360831 50.88517  z " style="fill:#d2553e;opacity:0.4;" />
   </g>
   <g id="patch_147">
    <path clip-path="url(#pb2e403e0a3)" d="M 128.883718 224.64  L 132.406605 224.64  L 132.406605 45.05733  L 128.883718 45.05733  z " style="fill:#d2553e;opacity:0.4;" />
   </g>
   <g id="patch_148">
    <path clip-path="url(#pb2e403e0a3)" d="M 132.406605 224.64  L 135.929492 224.64  L 135.929492 36.933673  L 132.406605 36.933673  z " style="fill:#d2553e;opacity:0.4;" />
   </g>
   <g id="patch_149">
    <path clip-path="url(#pb2e403e0a3)" d="M 135.929492 224.64  L 139.452379 224.64  L 139.452379 31.713549  L 135.929492 31.713549  z " style="fill:#d2553e;opacity:0.4;" />
   </g>
   <g id="patch_150">
    <path clip-path="url(#pb2e403e0a3)" d="M 139.452379 224.64  L 142.975266 224.64  L 142.975266 30.108555  L 139.452379 30.108555  z " style="fill:#d2553e;opacity:0.4;" />
   </g>
   <g id="patch_151">
    <path clip-path="url(#pb2e403e0a3)" d="M 142.975266 224.64  L 146.498153 224.64  L 146.498153 26.441483  L 142.975266 26.441483  z " style="fill:#d2553e;opacity:0.4;" />
   </g>
   <g id="patch_152">
    <path clip-path="url(#pb2e403e0a3)" d="M 146.498153 224.64  L 150.02104 224.64  L 150.02104 24.680665  L 146.498153 24.680665  z " style="fill:#d2553e;opacity:0.4;" />
   </g>
   <g id="patch_153">
    <path clip-path="url(#pb2e403e0a3)" d="M 150.02104 224.64  L 153.543927 224.64  L 153.543927 28.482785  L 150.02104 28.482785  z " style="fill:#d2553e;opacity:0.4;" />
   </g>
   <g id="patch_154">
    <path clip-path="url(#pb2e403e0a3)" d="M 153.543927 224.64  L 157.066814 224.64  L 157.066814 28.9139  L 153.543927 28.9139  z " style="fill:#d2553e;opacity:0.4;" />
   </g>
   <g id="patch_155">
    <path clip-path="url(#pb2e403e0a3)" d="M 157.066814 224.64  L 160.589701 224.64  L 160.589701 36.990809  L 157.066814 36.990809  z " style="fill:#d2553e;opacity:0.4;" />
   </g>
   <g id="patch_156">
    <path clip-path="url(#pb2e403e0a3)" d="M 160.589701 224.64  L 164.112588 224.64  L 164.112588 41.540888  L 160.589701 41.540888  z " style="fill:#d2553e;opacity:0.4;" />
   </g>
   <g id="patch_157">
    <path clip-path="url(#pb2e403e0a3)" d="M 164.112588 224.64  L 167.635475 224.64  L 167.635475 49.690515  L 164.112588 49.690515  z " style="fill:#d2553e;opacity:0.4;" />
   </g>
   <g id="patch_158">
    <path clip-path="url(#pb2e403e0a3)" d="M 167.635475 224.64  L 171.158362 224.64  L 171.158362 59.497077  L 167.635475 59.497077  z " style="fill:#d2553e;opacity:0.4;" />
   </g>
   <g id="patch_159">
    <path clip-path="url(#pb2e403e0a3)" d="M 171.158362 224.64  L 174.681249 224.64  L 174.681249 69.153009  L 171.158362 69.153009  z " style="fill:#d2553e;opacity:0.4;" />
   </g>
   <g id="patch_160">
    <path clip-path="url(#pb2e403e0a3)" d="M 174.681249 224.64  L 178.204136 224.64  L 178.204136 81.707278  L 174.681249 81.707278  z " style="fill:#d2553e;opacity:0.4;" />
   </g>
   <g id="patch_161">
    <path clip-path="url(#pb2e403e0a3)" d="M 178.204136 224.64  L 181.727023 224.64  L 181.727023 92.542283  L 178.204136 92.542283  z " style="fill:#d2553e;opacity:0.4;" />
   </g>
   <g id="patch_162">
    <path clip-path="url(#pb2e403e0a3)" d="M 181.727023 224.64  L 185.24991 224.64  L 185.24991 103.922674  L 181.727023 103.922674  z " style="fill:#d2553e;opacity:0.4;" />
   </g>
   <g id="patch_163">
    <path clip-path="url(#pb2e403e0a3)" d="M 185.24991 224.64  L 188.772797 224.64  L 188.772797 116.721068  L 185.24991 116.721068  z " style="fill:#d2553e;opacity:0.4;" />
   </g>
   <g id="patch_164">
    <path clip-path="url(#pb2e403e0a3)" d="M 188.772797 224.64  L 192.295684 224.64  L 192.295684 128.174177  L 188.772797 128.174177  z " style="fill:#d2553e;opacity:0.4;" />
   </g>
   <g id="patch_165">
    <path clip-path="url(#pb2e403e0a3)" d="M 192.295684 224.64  L 195.818571 224.64  L 195.818571 137.954769  L 192.295684 137.954769  z " style="fill:#d2553e;opacity:0.4;" />
   </g>
   <g id="patch_166">
    <path clip-path="url(#pb2e403e0a3)" d="M 195.818571 224.64  L 199.341458 224.64  L 199.341458 147.200362  L 195.818571 147.200362  z " style="fill:#d2553e;opacity:0.4;" />
   </g>
   <g id="patch_167">
    <path clip-path="url(#pb2e403e0a3)" d="M 199.341458 224.64  L 202.864345 224.64  L 202.864345 158.695024  L 199.341458 158.695024  z " style="fill:#d2553e;opacity:0.4;" />
   </g>
   <g id="patch_168">
    <path clip-path="url(#pb2e403e0a3)" d="M 202.864345 224.64  L 206.387232 224.64  L 206.387232 167.301737  L 202.864345 167.301737  z " style="fill:#d2553e;opacity:0.4;" />
   </g>
   <g id="patch_169">
    <path clip-path="url(#pb2e403e0a3)" d="M 206.387232 224.64  L 209.910119 224.64  L 209.910119 175.38384  L 206.387232 175.38384  z " style="fill:#d2553e;opacity:0.4;" />
   </g>
   <g id="patch_170">
    <path clip-path="url(#pb2e403e0a3)" d="M 209.910119 224.64  L 213.433006 224.64  L 213.433006 183.175071  L 209.910119 183.175071  z " style="fill:#d2553e;opacity:0.4;" />
   </g>
   <g id="patch_171">
    <path clip-path="url(#pb2e403e0a3)" d="M 213.433006 224.64  L 216.955893 224.64  L 216.955893 191.028631  L 213.433006 191.028631  z " style="fill:#d2553e;opacity:0.4;" />
   </g>
   <g id="patch_172">
    <path clip-path="url(#pb2e403e0a3)" d="M 216.955893 224.64  L 220.47878 224.64  L 220.47878 195.625457  L 216.955893 195.625457  z " style="fill:#d2553e;opacity:0.4;" />
   </g>
   <g id="patch_173">
    <path clip-path="url(#pb2e403e0a3)" d="M 220.47878 224.64  L 224.001667 224.64  L 224.001667 200.887135  L 220.47878 200.887135  z " style="fill:#d2553e;opacity:0.4;" />
   </g>
   <g id="patch_174">
    <path clip-path="url(#pb2e403e0a3)" d="M 224.001667 224.64  L 227.524554 224.64  L 227.524554 205.047652  L 224.001667 205.047652  z " style="fill:#d2553e;opacity:0.4;" />
   </g>
   <g id="patch_175">
    <path clip-path="url(#pb2e403e0a3)" d="M 227.524554 224.64  L 231.047441 224.64  L 231.047441 209.260111  L 227.524554 209.260111  z " style="fill:#d2553e;opacity:0.4;" />
   </g>
   <g id="patch_176">
    <path clip-path="url(#pb2e403e0a3)" d="M 231.047441 224.64  L 234.570328 224.64  L 234.570328 212.168837  L 231.047441 212.168837  z " style="fill:#d2553e;opacity:0.4;" />
   </g>
   <g id="patch_177">
    <path clip-path="url(#pb2e403e0a3)" d="M 234.570328 224.64  L 238.093215 224.64  L 238.093215 214.916544  L 234.570328 214.916544  z " style="fill:#d2553e;opacity:0.4;" />
   </g>
   <g id="patch_178">
    <path clip-path="url(#pb2e403e0a3)" d="M 238.093215 224.64  L 241.616102 224.64  L 241.616102 216.635809  L 238.093215 216.635809  z " style="fill:#d2553e;opacity:0.4;" />
   </g>
   <g id="patch_179">
    <path clip-path="url(#pb2e403e0a3)" d="M 241.616102 224.64  L 245.138989 224.64  L 245.138989 218.547258  L 241.616102 218.547258  z " style="fill:#d2553e;opacity:0.4;" />
   </g>
   <g id="patch_180">
    <path clip-path="url(#pb2e403e0a3)" d="M 245.138989 224.64  L 248.661876 224.64  L 248.661876 219.830214  L 245.138989 219.830214  z " style="fill:#d2553e;opacity:0.4;" />
   </g>
   <g id="patch_181">
    <path clip-path="url(#pb2e403e0a3)" d="M 248.661876 224.64  L 252.184763 224.64  L 252.184763 220.920986  L 248.661876 220.920986  z " style="fill:#d2553e;opacity:0.4;" />
   </g>
   <g id="patch_182">
    <path clip-path="url(#pb2e403e0a3)" d="M 252.184763 224.64  L 255.70765 224.64  L 255.70765 221.970205  L 252.184763 221.970205  z " style="fill:#d2553e;opacity:0.4;" />
   </g>
   <g id="patch_183">
    <path clip-path="url(#pb2e403e0a3)" d="M 255.70765 224.64  L 259.230537 224.64  L 259.230537 222.510397  L 255.70765 222.510397  z " style="fill:#d2553e;opacity:0.4;" />
   </g>
   <g id="patch_184">
    <path clip-path="url(#pb2e403e0a3)" d="M 259.230537 224.64  L 262.753424 224.64  L 262.753424 223.118113  L 259.230537 223.118113  z " style="fill:#d2553e;opacity:0.4;" />
   </g>
   <g id="patch_185">
    <path clip-path="url(#pb2e403e0a3)" d="M 262.753424 224.64  L 266.276311 224.64  L 266.276311 223.44015  L 262.753424 223.44015  z " style="fill:#d2553e;opacity:0.4;" />
   </g>
   <g id="patch_186">
    <path clip-path="url(#pb2e403e0a3)" d="M 266.276311 224.64  L 269.799198 224.64  L 269.799198 223.772576  L 266.276311 223.772576  z " style="fill:#d2553e;opacity:0.4;" />
   </g>
   <g id="patch_187">
    <path clip-path="url(#pb2e403e0a3)" d="M 269.799198 224.64  L 273.322085 224.64  L 273.322085 223.985537  L 269.799198 223.985537  z " style="fill:#d2553e;opacity:0.4;" />
   </g>
   <g id="patch_188">
    <path clip-path="url(#pb2e403e0a3)" d="M 273.322085 224.64  L 276.844972 224.64  L 276.844972 224.24005  L 273.322085 224.24005  z " style="fill:#d2553e;opacity:0.4;" />
   </g>
   <g id="patch_189">
    <path clip-path="url(#pb2e403e0a3)" d="M 276.844972 224.64  L 280.367859 224.64  L 280.367859 224.312768  L 276.844972 224.312768  z " style="fill:#d2553e;opacity:0.4;" />
   </g>
   <g id="patch_190">
    <path clip-path="url(#pb2e403e0a3)" d="M 280.367859 224.64  L 283.890746 224.64  L 283.890746 224.390681  L 280.367859 224.390681  z " style="fill:#d2553e;opacity:0.4;" />
   </g>
   <g id="patch_191">
    <path clip-path="url(#pb2e403e0a3)" d="M 283.890746 224.64  L 287.413633 224.64  L 287.413633 224.468593  L 283.890746 224.468593  z " style="fill:#d2553e;opacity:0.4;" />
   </g>
   <g id="patch_192">
    <path clip-path="url(#pb2e403e0a3)" d="M 287.413633 224.64  L 290.93652 224.64  L 290.93652 224.525729  L 287.413633 224.525729  z " style="fill:#d2553e;opacity:0.4;" />
   </g>
   <g id="patch_193">
    <path clip-path="url(#pb2e403e0a3)" d="M 290.93652 224.64  L 294.459407 224.64  L 294.459407 224.562088  L 290.93652 224.562088  z " style="fill:#d2553e;opacity:0.4;" />
   </g>
   <g id="patch_194">
    <path clip-path="url(#pb2e403e0a3)" d="M 294.459407 224.64  L 297.982294 224.64  L 297.982294 224.598447  L 294.459407 224.598447  z " style="fill:#d2553e;opacity:0.4;" />
   </g>
   <g id="patch_195">
    <path clip-path="url(#pb2e403e0a3)" d="M 297.982294 224.64  L 301.505181 224.64  L 301.505181 224.619223  L 297.982294 224.619223  z " style="fill:#d2553e;opacity:0.4;" />
   </g>
   <g id="patch_196">
    <path clip-path="url(#pb2e403e0a3)" d="M 301.505181 224.64  L 305.028068 224.64  L 305.028068 224.624418  L 301.505181 224.624418  z " style="fill:#d2553e;opacity:0.4;" />
   </g>
   <g id="patch_197">
    <path clip-path="url(#pb2e403e0a3)" d="M 305.028068 224.64  L 308.550955 224.64  L 308.550955 224.619223  L 305.028068 224.619223  z " style="fill:#d2553e;opacity:0.4;" />
   </g>
   <g id="patch_198">
    <path clip-path="url(#pb2e403e0a3)" d="M 308.550955 224.64  L 312.073842 224.64  L 312.073842 224.64  L 308.550955 224.64  z " style="fill:#d2553e;opacity:0.4;" />
   </g>
   <g id="patch_199">
    <path clip-path="url(#pb2e403e0a3)" d="M 312.073842 224.64  L 315.596729 224.64  L 315.596729 224.629612  L 312.073842 224.629612  z " style="fill:#d2553e;opacity:0.4;" />
   </g>
   <g id="patch_200">
    <path clip-path="url(#pb2e403e0a3)" d="M 315.596729 224.64  L 319.119616 224.64  L 319.119616 224.634806  L 315.596729 224.634806  z " style="fill:#d2553e;opacity:0.4;" />
   </g>
   <g id="patch_201">
    <path clip-path="url(#pb2e403e0a3)" d="M 319.119616 224.64  L 322.642503 224.64  L 322.642503 224.64  L 319.119616 224.64  z " style="fill:#d2553e;opacity:0.4;" />
   </g>
   <g id="patch_202">
    <path clip-path="url(#pb2e403e0a3)" d="M 322.642503 224.64  L 326.16539 224.64  L 326.16539 224.634806  L 322.642503 224.634806  z " style="fill:#d2553e;opacity:0.4;" />
   </g>
   <g id="patch_203">
    <path d="M 10.7 224.64  L 10.7 7.2  " style="fill:none;stroke:#ffffff;stroke-linecap:square;stroke-linejoin:miter;" />
   </g>
   <g id="patch_204">
    <path d="M 345.5 224.64  L 345.5 7.2  " style="fill:none;stroke:#ffffff;stroke-linecap:square;stroke-linejoin:miter;" />
   </g>
   <g id="patch_205">
    <path d="M 10.7 224.64  L 345.5 224.64  " style="fill:none;stroke:#ffffff;stroke-linecap:square;stroke-linejoin:miter;" />
   </g>
   <g id="patch_206">
    <path d="M 10.7 7.2  L 345.5 7.2  " style="fill:none;stroke:#ffffff;stroke-linecap:square;stroke-linejoin:miter;" />
   </g>
  </g>
 </g>
 <defs>
  <clipPath id="pb2e403e0a3">
   <rect height="217.44" width="334.8" x="10.7" y="7.2" />
  </clipPath>
 </defs>
</svg>