<svg xmlns="http://www.w3.org/2000/svg" xmlns:ns1="http://www.w3.org/1999/xlink" height="264.131875pt" version="1.1" viewBox="0 0 355.88125 264.131875" width="355.88125pt">
 <defs>
  <style type="text/css">
*{stroke-linecap:butt;stroke-linejoin:round;white-space:pre;}
  </style>
 </defs>
 <g id="figure_1">
  <g id="patch_1">
   <path d="M 0 264.131875  L 355.88125 264.131875  L 355.88125 0  L 0 0  z " style="fill:none;" />
  </g>
  <g id="axes_1">
   <g id="patch_2">
    <path d="M 10.7 224.64  L 345.5 224.64  L 345.5 7.2  L 10.7 7.2  z " style="fill:none;" />
   </g>
   <g id="matplotlib.axis_1">
    <g id="xtick_1">
     <g id="line2d_1">
      <defs>
       <path d="M 0 0  L 0 3.5  " id="m6f95fb3cb3" style="stroke:#555555;stroke-width:0.8;" />
      </defs>
      <g>
       <use style="fill:#555555;stroke:#555555;stroke-width:0.8;" x="10.7" y="224.64" ns1:href="#m6f95fb3cb3" />
      </g>
     </g>
     <g id="text_1">
      <text style="text-anchor:middle;font-family:-apple-system,BlinkMacSystemFont,&quot;Segoe UI&quot;,Roboto,&quot;Helvetica Neue&quot;,Arial,&quot;Noto Sans&quot;,sans-serif,&quot;Apple Color Emoji&quot;,&quot;Segoe UI Emoji&quot;,&quot;Segoe UI Symbol&quot;,&quot;Noto Color Emoji&quot;;font-size:0.7em;color:#6c757d" transform="rotate(-0, 10.7, 239.238437)" x="10.7" y="239.238437">3</text>
     </g>
    </g>
    <g id="xtick_2">
     <g id="line2d_2">
      <g>
       <use style="fill:#555555;stroke:#555555;stroke-width:0.8;" x="77.66" y="224.64" ns1:href="#m6f95fb3cb3" />
      </g>
     </g>
     <g id="text_2">
      <text style="text-anchor:middle;font-family:-apple-system,BlinkMacSystemFont,&quot;Segoe UI&quot;,Roboto,&quot;Helvetica Neue&quot;,Arial,&quot;Noto Sans&quot;,sans-serif,&quot;Apple Color Emoji&quot;,&quot;Segoe UI Emoji&quot;,&quot;Segoe UI Symbol&quot;,&quot;Noto Color Emoji&quot;;font-size:0.7em;color:#6c757d" transform="rotate(-0, 77.66, 239.238437)" x="77.66" y="239.238437">4</text>
     </g>
    </g>
    <g id="xtick_3">
     <g id="line2d_3">
      <g>
       <use style="fill:#555555;stroke:#555555;stroke-width:0.8;" x="144.62" y="224.64" ns1:href="#m6f95fb3cb3" />
      </g>
     </g>
     <g id="text_3">
      <text style="text-anchor:middle;font-family:-apple-system,BlinkMacSystemFont,&quot;Segoe UI&quot;,Roboto,&quot;Helvetica Neue&quot;,Arial,&quot;Noto Sans&quot;,sans-serif,&quot;Apple Color Emoji&quot;,&quot;Segoe UI Emoji&quot;,&quot;Segoe UI Symbol&quot;,&quot;Noto Color Emoji&quot;;font-size:0.7em;color:#6c757d" transform="rotate(-0, 144.62, 239.238437)" x="144.62" y="239.238437">5</text>
     </g>
    </g>
    <g id="xtick_4">
     <g id="line2d_4">
      <g>
       <use style="fill:#555555;stroke:#555555;stroke-width:0.8;" x="211.58" y="224.64" ns1:href="#m6f95fb3cb3" />
      </g>
     </g>
     <g id="text_4">
      <text style="text-anchor:middle;font-family:-apple-system,BlinkMacSystemFont,&quot;Segoe UI&quot;,Roboto,&quot;Helvetica Neue&quot;,Arial,&quot;Noto Sans&quot;,sans-serif,&quot;Apple Color Emoji&quot;,&quot;Segoe UI Emoji&quot;,&quot;Segoe UI Symbol&quot;,&quot;Noto Color Emoji&quot;;font-size:0.7em;color:#6c757d" transform="rotate(-0, 211.58, 239.238437)" x="211.58" y="239.238437">6</text>
     </g>
    </g>
    <g id="xtick_5">
     <g id="line2d_5">
      <g>
       <use style="fill:#555555;stroke:#555555;stroke-width:0.8;" x="278.54" y="224.64" ns1:href="#m6f95fb3cb3" />
      </g>
     </g>
     <g id="text_5">
      <text style="text-anchor:middle;font-family:-apple-system,BlinkMacSystemFont,&quot;Segoe UI&quot;,Roboto,&quot;Helvetica Neue&quot;,Arial,&quot;Noto Sans&quot;,sans-serif,&quot;Apple Color Emoji&quot;,&quot;Segoe UI Emoji&quot;,&quot;Segoe UI Symbol&quot;,&quot;Noto Color Emoji&quot;;font-size:0.7em;color:#6c757d" transform="rotate(-0, 278.54, 239.238437)" x="278.54" y="239.238437">7</text>
     </g>
    </g>
    <g id="xtick_6">
     <g id="line2d_6">
      <g>
       <use style="fill:#555555;stroke:#555555;stroke-width:0.8;" x="345.5" y="224.64" ns1:href="#m6f95fb3cb3" />
      </g>
     </g>
     <g id="text_6">
      <text style="text-anchor:middle;font-family:-apple-system,BlinkMacSystemFont,&quot;Segoe UI&quot;,Roboto,&quot;Helvetica Neue&quot;,Arial,&quot;Noto Sans&quot;,sans-serif,&quot;Apple Color Emoji&quot;,&quot;Segoe UI Emoji&quot;,&quot;Segoe UI Symbol&quot;,&quot;Noto Color Emoji&quot;;font-size:0.7em;color:#6c757d" transform="rotate(-0, 345.5, 239.238437)" x="345.5" y="239.238437">8</text>
     </g>
    </g>
    <g id="text_7">
     <text style="text-anchor:middle;font-family:-apple-system,BlinkMacSystemFont,&quot;Segoe UI&quot;,Roboto,&quot;Helvetica Neue&quot;,Arial,&quot;Noto Sans&quot;,sans-serif,&quot;Apple Color Emoji&quot;,&quot;Segoe UI Emoji&quot;,&quot;Segoe UI Symbol&quot;,&quot;Noto Color Emoji&quot;;font-size:0.7em;color:#6c757d" transform="rotate(-0, 178.1, 254.43625)" x="178.1" y="254.43625">Height (feet)</text>
    </g>
   </g>
   <g id="patch_3">
    <path clip-path="url(#p86efd7a83d)" d="M 65.14664 224.64  L 67.605591 224.64  L 67.605591 224.637329  L 65.14664 224.637329  z " style="fill:#4b89b9;opacity:0.4;" />
   </g>
   <g id="patch_4">
    <path clip-path="url(#p86efd7a83d)" d="M 67.605591 224.64  L 70.064543 224.64  L 70.064543 224.64  L 67.605591 224.64  z " style="fill:#4b89b9;opacity:0.4;" />
   </g>
   <g id="patch_5">
    <path clip-path="url(#p86efd7a83d)" d="M 70.064543 224.64  L 72.523495 224.64  L 72.523495 224.64  L 70.064543 224.64  z " style="fill:#4b89b9;opacity:0.4;" />
   </g>
   <g id="patch_6">
    <path clip-path="url(#p86efd7a83d)" d="M 72.523495 224.64  L 74.982447 224.64  L 74.982447 224.637329  L 72.523495 224.637329  z " style="fill:#4b89b9;opacity:0.4;" />
   </g>
   <g id="patch_7">
    <path clip-path="url(#p86efd7a83d)" d="M 74.982447 224.64  L 77.441399 224.64  L 77.441399 224.64  L 74.982447 224.64  z " style="fill:#4b89b9;opacity:0.4;" />
   </g>
   <g id="patch_8">
    <path clip-path="url(#p86efd7a83d)" d="M 77.441399 224.64  L 79.90035 224.64  L 79.90035 224.64  L 77.441399 224.64  z " style="fill:#4b89b9;opacity:0.4;" />
   </g>
   <g id="patch_9">
    <path clip-path="url(#p86efd7a83d)" d="M 79.90035 224.64  L 82.359302 224.64  L 82.359302 224.64  L 79.90035 224.64  z " style="fill:#4b89b9;opacity:0.4;" />
   </g>
   <g id="patch_10">
    <path clip-path="url(#p86efd7a83d)" d="M 82.359302 224.64  L 84.818254 224.64  L 84.818254 224.637329  L 82.359302 224.637329  z " style="fill:#4b89b9;opacity:0.4;" />
   </g>
   <g id="patch_11">
    <path clip-path="url(#p86efd7a83d)" d="M 84.818254 224.64  L 87.277206 224.64  L 87.277206 224.631986  L 84.818254 224.631986  z " style="fill:#4b89b9;opacity:0.4;" />
   </g>
   <g id="patch_12">
    <path clip-path="url(#p86efd7a83d)" d="M 87.277206 224.64  L 89.736158 224.64  L 89.736158 224.626643  L 87.277206 224.626643  z " style="fill:#4b89b9;opacity:0.4;" />
   </g>
   <g id="patch_13">
    <path clip-path="url(#p86efd7a83d)" d="M 89.736158 224.64  L 92.195109 224.64  L 92.195109 224.618629  L 89.736158 224.618629  z " style="fill:#4b89b9;opacity:0.4;" />
   </g>
   <g id="patch_14">
    <path clip-path="url(#p86efd7a83d)" d="M 92.195109 224.64  L 94.654061 224.64  L 94.654061 224.589243  L 92.195109 224.589243  z " style="fill:#4b89b9;opacity:0.4;" />
   </g>
   <g id="patch_15">
    <path clip-path="url(#p86efd7a83d)" d="M 94.654061 224.64  L 97.113013 224.64  L 97.113013 224.5652  L 94.654061 224.5652  z " style="fill:#4b89b9;opacity:0.4;" />
   </g>
   <g id="patch_16">
    <path clip-path="url(#p86efd7a83d)" d="M 97.113013 224.64  L 99.571965 224.64  L 99.571965 224.559857  L 97.113013 224.559857  z " style="fill:#4b89b9;opacity:0.4;" />
   </g>
   <g id="patch_17">
    <path clip-path="url(#p86efd7a83d)" d="M 99.571965 224.64  L 102.030917 224.64  L 102.030917 224.444986  L 99.571965 224.444986  z " style="fill:#4b89b9;opacity:0.4;" />
   </g>
   <g id="patch_18">
    <path clip-path="url(#p86efd7a83d)" d="M 102.030917 224.64  L 104.489869 224.64  L 104.489869 224.37553  L 102.030917 224.37553  z " style="fill:#4b89b9;opacity:0.4;" />
   </g>
   <g id="patch_19">
    <path clip-path="url(#p86efd7a83d)" d="M 104.489869 224.64  L 106.94882 224.64  L 106.94882 224.266001  L 104.489869 224.266001  z " style="fill:#4b89b9;opacity:0.4;" />
   </g>
   <g id="patch_20">
    <path clip-path="url(#p86efd7a83d)" d="M 106.94882 224.64  L 109.407772 224.64  L 109.407772 224.060302  L 106.94882 224.060302  z " style="fill:#4b89b9;opacity:0.4;" />
   </g>
   <g id="patch_21">
    <path clip-path="url(#p86efd7a83d)" d="M 109.407772 224.64  L 111.866724 224.64  L 111.866724 223.699661  L 109.407772 223.699661  z " style="fill:#4b89b9;opacity:0.4;" />
   </g>
   <g id="patch_22">
    <path clip-path="url(#p86efd7a83d)" d="M 111.866724 224.64  L 114.325676 224.64  L 114.325676 223.210791  L 111.866724 223.210791  z " style="fill:#4b89b9;opacity:0.4;" />
   </g>
   <g id="patch_23">
    <path clip-path="url(#p86efd7a83d)" d="M 114.325676 224.64  L 116.784628 224.64  L 116.784628 222.572322  L 114.325676 222.572322  z " style="fill:#4b89b9;opacity:0.4;" />
   </g>
   <g id="patch_24">
    <path clip-path="url(#p86efd7a83d)" d="M 116.784628 224.64  L 119.243579 224.64  L 119.243579 221.765553  L 116.784628 221.765553  z " style="fill:#4b89b9;opacity:0.4;" />
   </g>
   <g id="patch_25">
    <path clip-path="url(#p86efd7a83d)" d="M 119.243579 224.64  L 121.702531 224.64  L 121.702531 220.47793  L 119.243579 220.47793  z " style="fill:#4b89b9;opacity:0.4;" />
   </g>
   <g id="patch_26">
    <path clip-path="url(#p86efd7a83d)" d="M 121.702531 224.64  L 124.161483 224.64  L 124.161483 218.912478  L 121.702531 218.912478  z " style="fill:#4b89b9;opacity:0.4;" />
   </g>
   <g id="patch_27">
    <path clip-path="url(#p86efd7a83d)" d="M 124.161483 224.64  L 126.620435 224.64  L 126.620435 216.906243  L 124.161483 216.906243  z " style="fill:#4b89b9;opacity:0.4;" />
   </g>
   <g id="patch_28">
    <path clip-path="url(#p86efd7a83d)" d="M 126.620435 224.64  L 129.079387 224.64  L 129.079387 214.413809  L 126.620435 214.413809  z " style="fill:#4b89b9;opacity:0.4;" />
   </g>
   <g id="patch_29">
    <path clip-path="url(#p86efd7a83d)" d="M 129.079387 224.64  L 131.538338 224.64  L 131.538338 210.545594  L 129.079387 210.545594  z " style="fill:#4b89b9;opacity:0.4;" />
   </g>
   <g id="patch_30">
    <path clip-path="url(#p86efd7a83d)" d="M 131.538338 224.64  L 133.99729 224.64  L 133.99729 206.241939  L 131.538338 206.241939  z " style="fill:#4b89b9;opacity:0.4;" />
   </g>
   <g id="patch_31">
    <path clip-path="url(#p86efd7a83d)" d="M 133.99729 224.64  L 136.456242 224.64  L 136.456242 200.843001  L 133.99729 200.843001  z " style="fill:#4b89b9;opacity:0.4;" />
   </g>
   <g id="patch_32">
    <path clip-path="url(#p86efd7a83d)" d="M 136.456242 224.64  L 138.915194 224.64  L 138.915194 194.925809  L 136.456242 194.925809  z " style="fill:#4b89b9;opacity:0.4;" />
   </g>
   <g id="patch_33">
    <path clip-path="url(#p86efd7a83d)" d="M 138.915194 224.64  L 141.374146 224.64  L 141.374146 187.301579  L 138.915194 187.301579  z " style="fill:#4b89b9;opacity:0.4;" />
   </g>
   <g id="patch_34">
    <path clip-path="url(#p86efd7a83d)" d="M 141.374146 224.64  L 143.833097 224.64  L 143.833097 178.702282  L 141.374146 178.702282  z " style="fill:#4b89b9;opacity:0.4;" />
   </g>
   <g id="patch_35">
    <path clip-path="url(#p86efd7a83d)" d="M 143.833097 224.64  L 146.292049 224.64  L 146.292049 169.972086  L 143.833097 169.972086  z " style="fill:#4b89b9;opacity:0.4;" />
   </g>
   <g id="patch_36">
    <path clip-path="url(#p86efd7a83d)" d="M 146.292049 224.64  L 148.751001 224.64  L 148.751001 157.712945  L 146.292049 157.712945  z " style="fill:#4b89b9;opacity:0.4;" />
   </g>
   <g id="patch_37">
    <path clip-path="url(#p86efd7a83d)" d="M 148.751001 224.64  L 151.209953 224.64  L 151.209953 146.527714  L 148.751001 146.527714  z " style="fill:#4b89b9;opacity:0.4;" />
   </g>
   <g id="patch_38">
    <path clip-path="url(#p86efd7a83d)" d="M 151.209953 224.64  L 153.668905 224.64  L 153.668905 133.357619  L 151.209953 133.357619  z " style="fill:#4b89b9;opacity:0.4;" />
   </g>
   <g id="patch_39">
    <path clip-path="url(#p86efd7a83d)" d="M 153.668905 224.64  L 156.127857 224.64  L 156.127857 120.673723  L 153.668905 120.673723  z " style="fill:#4b89b9;opacity:0.4;" />
   </g>
   <g id="patch_40">
    <path clip-path="url(#p86efd7a83d)" d="M 156.127857 224.64  L 158.586808 224.64  L 158.586808 107.77077  L 156.127857 107.77077  z " style="fill:#4b89b9;opacity:0.4;" />
   </g>
   <g id="patch_41">
    <path clip-path="url(#p86efd7a83d)" d="M 158.586808 224.64  L 161.04576 224.64  L 161.04576 93.911449  L 158.586808 93.911449  z " style="fill:#4b89b9;opacity:0.4;" />
   </g>
   <g id="patch_42">
    <path clip-path="url(#p86efd7a83d)" d="M 161.04576 224.64  L 163.504712 224.64  L 163.504712 80.615798  L 161.04576 80.615798  z " style="fill:#4b89b9;opacity:0.4;" />
   </g>
   <g id="patch_43">
    <path clip-path="url(#p86efd7a83d)" d="M 163.504712 224.64  L 165.963664 224.64  L 165.963664 67.47776  L 163.504712 67.47776  z " style="fill:#4b89b9;opacity:0.4;" />
   </g>
   <g id="patch_44">
    <path clip-path="url(#p86efd7a83d)" d="M 165.963664 224.64  L 168.422616 224.64  L 168.422616 57.612211  L 165.963664 57.612211  z " style="fill:#4b89b9;opacity:0.4;" />
   </g>
   <g id="patch_45">
    <path clip-path="url(#p86efd7a83d)" d="M 168.422616 224.64  L 170.881567 224.64  L 170.881567 46.849064  L 168.422616 46.849064  z " style="fill:#4b89b9;opacity:0.4;" />
   </g>
   <g id="patch_46">
    <path clip-path="url(#p86efd7a83d)" d="M 170.881567 224.64  L 173.340519 224.64  L 173.340519 38.66918  L 170.881567 38.66918  z " style="fill:#4b89b9;opacity:0.4;" />
   </g>
   <g id="patch_47">
    <path clip-path="url(#p86efd7a83d)" d="M 173.340519 224.64  L 175.799471 224.64  L 175.799471 31.635334  L 173.340519 31.635334  z " style="fill:#4b89b9;opacity:0.4;" />
   </g>
   <g id="patch_48">
    <path clip-path="url(#p86efd7a83d)" d="M 175.799471 224.64  L 178.258423 224.64  L 178.258423 26.482167  L 175.799471 26.482167  z " style="fill:#4b89b9;opacity:0.4;" />
   </g>
   <g id="patch_49">
    <path clip-path="url(#p86efd7a83d)" d="M 178.258423 224.64  L 180.717375 224.64  L 180.717375 23.297836  L 178.258423 23.297836  z " style="fill:#4b89b9;opacity:0.4;" />
   </g>
   <g id="patch_50">
    <path clip-path="url(#p86efd7a83d)" d="M 180.717375 224.64  L 183.176326 224.64  L 183.176326 20.516889  L 180.717375 20.516889  z " style="fill:#4b89b9;opacity:0.4;" />
   </g>
   <g id="patch_51">
    <path clip-path="url(#p86efd7a83d)" d="M 183.176326 224.64  L 185.635278 224.64  L 185.635278 22.493739  L 183.176326 22.493739  z " style="fill:#4b89b9;opacity:0.4;" />
   </g>
   <g id="patch_52">
    <path clip-path="url(#p86efd7a83d)" d="M 185.635278 224.64  L 188.09423 224.64  L 188.09423 25.843698  L 185.635278 25.843698  z " style="fill:#4b89b9;opacity:0.4;" />
   </g>
   <g id="patch_53">
    <path clip-path="url(#p86efd7a83d)" d="M 188.09423 224.64  L 190.553182 224.64  L 190.553182 27.732391  L 188.09423 27.732391  z " style="fill:#4b89b9;opacity:0.4;" />
   </g>
   <g id="patch_54">
    <path clip-path="url(#p86efd7a83d)" d="M 190.553182 224.64  L 193.012134 224.64  L 193.012134 33.788498  L 190.553182 33.788498  z " style="fill:#4b89b9;opacity:0.4;" />
   </g>
   <g id="patch_55">
    <path clip-path="url(#p86efd7a83d)" d="M 193.012134 224.64  L 195.471086 224.64  L 195.471086 39.395806  L 193.012134 39.395806  z " style="fill:#4b89b9;opacity:0.4;" />
   </g>
   <g id="patch_56">
    <path clip-path="url(#p86efd7a83d)" d="M 195.471086 224.64  L 197.930037 224.64  L 197.930037 46.322795  L 195.471086 46.322795  z " style="fill:#4b89b9;opacity:0.4;" />
   </g>
   <g id="patch_57">
    <path clip-path="url(#p86efd7a83d)" d="M 197.930037 224.64  L 200.388989 224.64  L 200.388989 55.555218  L 197.930037 55.555218  z " style="fill:#4b89b9;opacity:0.4;" />
   </g>
   <g id="patch_58">
    <path clip-path="url(#p86efd7a83d)" d="M 200.388989 224.64  L 202.847941 224.64  L 202.847941 62.685235  L 200.388989 62.685235  z " style="fill:#4b89b9;opacity:0.4;" />
   </g>
   <g id="patch_59">
    <path clip-path="url(#p86efd7a83d)" d="M 202.847941 224.64  L 205.306893 224.64  L 205.306893 72.077944  L 202.847941 72.077944  z " style="fill:#4b89b9;opacity:0.4;" />
   </g>
   <g id="patch_60">
    <path clip-path="url(#p86efd7a83d)" d="M 205.306893 224.64  L 207.765845 224.64  L 207.765845 82.881161  L 205.306893 82.881161  z " style="fill:#4b89b9;opacity:0.4;" />
   </g>
   <g id="patch_61">
    <path clip-path="url(#p86efd7a83d)" d="M 207.765845 224.64  L 210.224796 224.64  L 210.224796 92.559711  L 207.765845 92.559711  z " style="fill:#4b89b9;opacity:0.4;" />
   </g>
   <g id="patch_62">
    <path clip-path="url(#p86efd7a83d)" d="M 210.224796 224.64  L 212.683748 224.64  L 212.683748 102.112705  L 210.224796 102.112705  z " style="fill:#4b89b9;opacity:0.4;" />
   </g>
   <g id="patch_63">
    <path clip-path="url(#p86efd7a83d)" d="M 212.683748 224.64  L 215.1427 224.64  L 215.1427 111.727141  L 212.683748 111.727141  z " style="fill:#4b89b9;opacity:0.4;" />
   </g>
   <g id="patch_64">
    <path clip-path="url(#p86efd7a83d)" d="M 215.1427 224.64  L 217.601652 224.64  L 217.601652 123.273013  L 215.1427 123.273013  z " style="fill:#4b89b9;opacity:0.4;" />
   </g>
   <g id="patch_65">
    <path clip-path="url(#p86efd7a83d)" d="M 217.601652 224.64  L 220.060604 224.64  L 220.060604 132.967592  L 217.601652 132.967592  z " style="fill:#4b89b9;opacity:0.4;" />
   </g>
   <g id="patch_66">
    <path clip-path="url(#p86efd7a83d)" d="M 220.060604 224.64  L 222.519555 224.64  L 222.519555 142.261458  L 220.060604 142.261458  z " style="fill:#4b89b9;opacity:0.4;" />
   </g>
   <g id="patch_67">
    <path clip-path="url(#p86efd7a83d)" d="M 222.519555 224.64  L 224.978507 224.64  L 224.978507 152.939119  L 222.519555 152.939119  z " style="fill:#4b89b9;opacity:0.4;" />
   </g>
   <g id="patch_68">
    <path clip-path="url(#p86efd7a83d)" d="M 224.978507 224.64  L 227.437459 224.64  L 227.437459 161.22586  L 224.978507 161.22586  z " style="fill:#4b89b9;opacity:0.4;" />
   </g>
   <g id="patch_69">
    <path clip-path="url(#p86efd7a83d)" d="M 227.437459 224.64  L 229.896411 224.64  L 229.896411 169.328274  L 227.437459 169.328274  z " style="fill:#4b89b9;opacity:0.4;" />
   </g>
   <g id="patch_70">
    <path clip-path="url(#p86efd7a83d)" d="M 229.896411 224.64  L 232.355363 224.64  L 232.355363 177.948942  L 229.896411 177.948942  z " style="fill:#4b89b9;opacity:0.4;" />
   </g>
   <g id="patch_71">
    <path clip-path="url(#p86efd7a83d)" d="M 232.355363 224.64  L 234.814314 224.64  L 234.814314 184.651532  L 232.355363 184.651532  z " style="fill:#4b89b9;opacity:0.4;" />
   </g>
   <g id="patch_72">
    <path clip-path="url(#p86efd7a83d)" d="M 234.814314 224.64  L 237.273266 224.64  L 237.273266 191.108351  L 234.814314 191.108351  z " style="fill:#4b89b9;opacity:0.4;" />
   </g>
   <g id="patch_73">
    <path clip-path="url(#p86efd7a83d)" d="M 237.273266 224.64  L 239.732218 224.64  L 239.732218 196.672917  L 237.273266 196.672917  z " style="fill:#4b89b9;opacity:0.4;" />
   </g>
   <g id="patch_74">
    <path clip-path="url(#p86efd7a83d)" d="M 239.732218 224.64  L 242.19117 224.64  L 242.19117 201.390642  L 239.732218 201.390642  z " style="fill:#4b89b9;opacity:0.4;" />
   </g>
   <g id="patch_75">
    <path clip-path="url(#p86efd7a83d)" d="M 242.19117 224.64  L 244.650122 224.64  L 244.650122 205.827869  L 242.19117 205.827869  z " style="fill:#4b89b9;opacity:0.4;" />
   </g>
   <g id="patch_76">
    <path clip-path="url(#p86efd7a83d)" d="M 244.650122 224.64  L 247.109074 224.64  L 247.109074 209.469013  L 244.650122 209.469013  z " style="fill:#4b89b9;opacity:0.4;" />
   </g>
   <g id="patch_77">
    <path clip-path="url(#p86efd7a83d)" d="M 247.109074 224.64  L 249.568025 224.64  L 249.568025 212.960557  L 247.109074 212.960557  z " style="fill:#4b89b9;opacity:0.4;" />
   </g>
   <g id="patch_78">
    <path clip-path="url(#p86efd7a83d)" d="M 249.568025 224.64  L 252.026977 224.64  L 252.026977 215.247291  L 249.568025 215.247291  z " style="fill:#4b89b9;opacity:0.4;" />
   </g>
   <g id="patch_79">
    <path clip-path="url(#p86efd7a83d)" d="M 252.026977 224.64  L 254.485929 224.64  L 254.485929 217.397784  L 252.026977 217.397784  z " style="fill:#4b89b9;opacity:0.4;" />
   </g>
   <g id="patch_80">
    <path clip-path="url(#p86efd7a83d)" d="M 254.485929 224.64  L 256.944881 224.64  L 256.944881 219.144892  L 254.485929 219.144892  z " style="fill:#4b89b9;opacity:0.4;" />
   </g>
   <g id="patch_81">
    <path clip-path="url(#p86efd7a83d)" d="M 256.944881 224.64  L 259.403833 224.64  L 259.403833 220.371073  L 256.944881 220.371073  z " style="fill:#4b89b9;opacity:0.4;" />
   </g>
   <g id="patch_82">
    <path clip-path="url(#p86efd7a83d)" d="M 259.403833 224.64  L 261.862784 224.64  L 261.862784 221.586568  L 259.403833 221.586568  z " style="fill:#4b89b9;opacity:0.4;" />
   </g>
   <g id="patch_83">
    <path clip-path="url(#p86efd7a83d)" d="M 261.862784 224.64  L 264.321736 224.64  L 264.321736 222.486836  L 261.862784 222.486836  z " style="fill:#4b89b9;opacity:0.4;" />
   </g>
   <g id="patch_84">
    <path clip-path="url(#p86efd7a83d)" d="M 264.321736 224.64  L 266.780688 224.64  L 266.780688 222.940978  L 264.321736 222.940978  z " style="fill:#4b89b9;opacity:0.4;" />
   </g>
   <g id="patch_85">
    <path clip-path="url(#p86efd7a83d)" d="M 266.780688 224.64  L 269.23964 224.64  L 269.23964 223.408476  L 266.780688 223.408476  z " style="fill:#4b89b9;opacity:0.4;" />
   </g>
   <g id="patch_86">
    <path clip-path="url(#p86efd7a83d)" d="M 269.23964 224.64  L 271.698592 224.64  L 271.698592 223.779803  L 269.23964 223.779803  z " style="fill:#4b89b9;opacity:0.4;" />
   </g>
   <g id="patch_87">
    <path clip-path="url(#p86efd7a83d)" d="M 271.698592 224.64  L 274.157543 224.64  L 274.157543 223.934745  L 271.698592 223.934745  z " style="fill:#4b89b9;opacity:0.4;" />
   </g>
   <g id="patch_88">
    <path clip-path="url(#p86efd7a83d)" d="M 274.157543 224.64  L 276.616495 224.64  L 276.616495 224.204559  L 274.157543 224.204559  z " style="fill:#4b89b9;opacity:0.4;" />
   </g>
   <g id="patch_89">
    <path clip-path="url(#p86efd7a83d)" d="M 276.616495 224.64  L 279.075447 224.64  L 279.075447 224.346144  L 276.616495 224.346144  z " style="fill:#4b89b9;opacity:0.4;" />
   </g>
   <g id="patch_90">
    <path clip-path="url(#p86efd7a83d)" d="M 279.075447 224.64  L 281.534399 224.64  L 281.534399 224.431629  L 279.075447 224.431629  z " style="fill:#4b89b9;opacity:0.4;" />
   </g>
   <g id="patch_91">
    <path clip-path="url(#p86efd7a83d)" d="M 281.534399 224.64  L 283.993351 224.64  L 283.993351 224.503758  L 281.534399 224.503758  z " style="fill:#4b89b9;opacity:0.4;" />
   </g>
   <g id="patch_92">
    <path clip-path="url(#p86efd7a83d)" d="M 283.993351 224.64  L 286.452303 224.64  L 286.452303 224.517115  L 283.993351 224.517115  z " style="fill:#4b89b9;opacity:0.4;" />
   </g>
   <g id="patch_93">
    <path clip-path="url(#p86efd7a83d)" d="M 286.452303 224.64  L 288.911254 224.64  L 288.911254 224.575886  L 286.452303 224.575886  z " style="fill:#4b89b9;opacity:0.4;" />
   </g>
   <g id="patch_94">
    <path clip-path="url(#p86efd7a83d)" d="M 288.911254 224.64  L 291.370206 224.64  L 291.370206 224.575886  L 288.911254 224.575886  z " style="fill:#4b89b9;opacity:0.4;" />
   </g>
   <g id="patch_95">
    <path clip-path="url(#p86efd7a83d)" d="M 291.370206 224.64  L 293.829158 224.64  L 293.829158 224.618629  L 291.370206 224.618629  z " style="fill:#4b89b9;opacity:0.4;" />
   </g>
   <g id="patch_96">
    <path clip-path="url(#p86efd7a83d)" d="M 293.829158 224.64  L 296.28811 224.64  L 296.28811 224.6213  L 293.829158 224.6213  z " style="fill:#4b89b9;opacity:0.4;" />
   </g>
   <g id="patch_97">
    <path clip-path="url(#p86efd7a83d)" d="M 296.28811 224.64  L 298.747062 224.64  L 298.747062 224.626643  L 296.28811 224.626643  z " style="fill:#4b89b9;opacity:0.4;" />
   </g>
   <g id="patch_98">
    <path clip-path="url(#p86efd7a83d)" d="M 298.747062 224.64  L 301.206013 224.64  L 301.206013 224.637329  L 298.747062 224.637329  z " style="fill:#4b89b9;opacity:0.4;" />
   </g>
   <g id="patch_99">
    <path clip-path="url(#p86efd7a83d)" d="M 301.206013 224.64  L 303.664965 224.64  L 303.664965 224.637329  L 301.206013 224.637329  z " style="fill:#4b89b9;opacity:0.4;" />
   </g>
   <g id="patch_100">
    <path clip-path="url(#p86efd7a83d)" d="M 303.664965 224.64  L 306.123917 224.64  L 306.123917 224.64  L 303.664965 224.64  z " style="fill:#4b89b9;opacity:0.4;" />
   </g>
   <g id="patch_101">
    <path clip-path="url(#p86efd7a83d)" d="M 306.123917 224.64  L 308.582869 224.64  L 308.582869 224.637329  L 306.123917 224.637329  z " style="fill:#4b89b9;opacity:0.4;" />
   </g>
   <g id="patch_102">
    <path clip-path="url(#p86efd7a83d)" d="M 308.582869 224.64  L 311.041821 224.64  L 311.041821 224.637329  L 308.582869 224.637329  z " style="fill:#4b89b9;opacity:0.4;" />
   </g>
   <g id="patch_103">
    <path clip-path="url(#p86efd7a83d)" d="M 151.621408 224.64  L 153.51745 224.64  L 153.51745 224.637329  L 151.621408 224.637329  z " style="fill:#ff0000;opacity:0.4;" />
   </g>
   <g id="patch_104">
    <path clip-path="url(#p86efd7a83d)" d="M 153.51745 224.64  L 155.413492 224.64  L 155.413492 224.64  L 153.51745 224.64  z " style="fill:#ff0000;opacity:0.4;" />
   </g>
   <g id="patch_105">
    <path clip-path="url(#p86efd7a83d)" d="M 155.413492 224.64  L 157.309533 224.64  L 157.309533 224.637329  L 155.413492 224.637329  z " style="fill:#ff0000;opacity:0.4;" />
   </g>
   <g id="patch_106">
    <path clip-path="url(#p86efd7a83d)" d="M 157.309533 224.64  L 159.205575 224.64  L 159.205575 224.64  L 157.309533 224.64  z " style="fill:#ff0000;opacity:0.4;" />
   </g>
   <g id="patch_107">
    <path clip-path="url(#p86efd7a83d)" d="M 159.205575 224.64  L 161.101617 224.64  L 161.101617 224.637329  L 159.205575 224.637329  z " style="fill:#ff0000;opacity:0.4;" />
   </g>
   <g id="patch_108">
    <path clip-path="url(#p86efd7a83d)" d="M 161.101617 224.64  L 162.997659 224.64  L 162.997659 224.637329  L 161.101617 224.637329  z " style="fill:#ff0000;opacity:0.4;" />
   </g>
   <g id="patch_109">
    <path clip-path="url(#p86efd7a83d)" d="M 162.997659 224.64  L 164.893701 224.64  L 164.893701 224.634657  L 162.997659 224.634657  z " style="fill:#ff0000;opacity:0.4;" />
   </g>
   <g id="patch_110">
    <path clip-path="url(#p86efd7a83d)" d="M 164.893701 224.64  L 166.789742 224.64  L 166.789742 224.613286  L 164.893701 224.613286  z " style="fill:#ff0000;opacity:0.4;" />
   </g>
   <g id="patch_111">
    <path clip-path="url(#p86efd7a83d)" d="M 166.789742 224.64  L 168.685784 224.64  L 168.685784 224.615957  L 166.789742 224.615957  z " style="fill:#ff0000;opacity:0.4;" />
   </g>
   <g id="patch_112">
    <path clip-path="url(#p86efd7a83d)" d="M 168.685784 224.64  L 170.581826 224.64  L 170.581826 224.613286  L 168.685784 224.613286  z " style="fill:#ff0000;opacity:0.4;" />
   </g>
   <g id="patch_113">
    <path clip-path="url(#p86efd7a83d)" d="M 170.581826 224.64  L 172.477868 224.64  L 172.477868 224.562529  L 170.581826 224.562529  z " style="fill:#ff0000;opacity:0.4;" />
   </g>
   <g id="patch_114">
    <path clip-path="url(#p86efd7a83d)" d="M 172.477868 224.64  L 174.37391 224.64  L 174.37391 224.562529  L 172.477868 224.562529  z " style="fill:#ff0000;opacity:0.4;" />
   </g>
   <g id="patch_115">
    <path clip-path="url(#p86efd7a83d)" d="M 174.37391 224.64  L 176.269952 224.64  L 176.269952 224.519786  L 174.37391 224.519786  z " style="fill:#ff0000;opacity:0.4;" />
   </g>
   <g id="patch_116">
    <path clip-path="url(#p86efd7a83d)" d="M 176.269952 224.64  L 178.165993 224.64  L 178.165993 224.461015  L 176.269952 224.461015  z " style="fill:#ff0000;opacity:0.4;" />
   </g>
   <g id="patch_117">
    <path clip-path="url(#p86efd7a83d)" d="M 178.165993 224.64  L 180.062035 224.64  L 180.062035 224.372858  L 178.165993 224.372858  z " style="fill:#ff0000;opacity:0.4;" />
   </g>
   <g id="patch_118">
    <path clip-path="url(#p86efd7a83d)" d="M 180.062035 224.64  L 181.958077 224.64  L 181.958077 224.298058  L 180.062035 224.298058  z " style="fill:#ff0000;opacity:0.4;" />
   </g>
   <g id="patch_119">
    <path clip-path="url(#p86efd7a83d)" d="M 181.958077 224.64  L 183.854119 224.64  L 183.854119 224.116402  L 181.958077 224.116402  z " style="fill:#ff0000;opacity:0.4;" />
   </g>
   <g id="patch_120">
    <path clip-path="url(#p86efd7a83d)" d="M 183.854119 224.64  L 185.750161 224.64  L 185.750161 223.969474  L 183.854119 223.969474  z " style="fill:#ff0000;opacity:0.4;" />
   </g>
   <g id="patch_121">
    <path clip-path="url(#p86efd7a83d)" d="M 185.750161 224.64  L 187.646202 224.64  L 187.646202 223.683632  L 185.750161 223.683632  z " style="fill:#ff0000;opacity:0.4;" />
   </g>
   <g id="patch_122">
    <path clip-path="url(#p86efd7a83d)" d="M 187.646202 224.64  L 189.542244 224.64  L 189.542244 223.347033  L 187.646202 223.347033  z " style="fill:#ff0000;opacity:0.4;" />
   </g>
   <g id="patch_123">
    <path clip-path="url(#p86efd7a83d)" d="M 189.542244 224.64  L 191.438286 224.64  L 191.438286 223.015777  L 189.542244 223.015777  z " style="fill:#ff0000;opacity:0.4;" />
   </g>
   <g id="patch_124">
    <path clip-path="url(#p86efd7a83d)" d="M 191.438286 224.64  L 193.334328 224.64  L 193.334328 222.254423  L 191.438286 222.254423  z " style="fill:#ff0000;opacity:0.4;" />
   </g>
   <g id="patch_125">
    <path clip-path="url(#p86efd7a83d)" d="M 193.334328 224.64  L 195.23037 224.64  L 195.23037 221.407583  L 193.334328 221.407583  z " style="fill:#ff0000;opacity:0.4;" />
   </g>
   <g id="patch_126">
    <path clip-path="url(#p86efd7a83d)" d="M 195.23037 224.64  L 197.126411 224.64  L 197.126411 220.400458  L 195.23037 220.400458  z " style="fill:#ff0000;opacity:0.4;" />
   </g>
   <g id="patch_127">
    <path clip-path="url(#p86efd7a83d)" d="M 197.126411 224.64  L 199.022453 224.64  L 199.022453 219.096806  L 197.126411 219.096806  z " style="fill:#ff0000;opacity:0.4;" />
   </g>
   <g id="patch_128">
    <path clip-path="url(#p86efd7a83d)" d="M 199.022453 224.64  L 200.918495 224.64  L 200.918495 217.499298  L 199.022453 217.499298  z " style="fill:#ff0000;opacity:0.4;" />
   </g>
   <g id="patch_129">
    <path clip-path="url(#p86efd7a83d)" d="M 200.918495 224.64  L 202.814537 224.64  L 202.814537 215.530462  L 200.918495 215.530462  z " style="fill:#ff0000;opacity:0.4;" />
   </g>
   <g id="patch_130">
    <path clip-path="url(#p86efd7a83d)" d="M 202.814537 224.64  L 204.710579 224.64  L 204.710579 212.8537  L 202.814537 212.8537  z " style="fill:#ff0000;opacity:0.4;" />
   </g>
   <g id="patch_131">
    <path clip-path="url(#p86efd7a83d)" d="M 204.710579 224.64  L 206.606621 224.64  L 206.606621 209.925825  L 204.710579 209.925825  z " style="fill:#ff0000;opacity:0.4;" />
   </g>
   <g id="patch_132">
    <path clip-path="url(#p86efd7a83d)" d="M 206.606621 224.64  L 208.502662 224.64  L 208.502662 206.399552  L 206.606621 206.399552  z " style="fill:#ff0000;opacity:0.4;" />
   </g>
   <g id="patch_133">
    <path clip-path="url(#p86efd7a83d)" d="M 208.502662 224.64  L 210.398704 224.64  L 210.398704 202.469895  L 208.502662 202.469895  z " style="fill:#ff0000;opacity:0.4;" />
   </g>
   <g id="patch_134">
    <path clip-path="url(#p86efd7a83d)" d="M 210.398704 224.64  L 212.294746 224.64  L 212.294746 197.070958  L 210.398704 197.070958  z " style="fill:#ff0000;opacity:0.4;" />
   </g>
   <g id="patch_135">
    <path clip-path="url(#p86efd7a83d)" d="M 212.294746 224.64  L 214.190788 224.64  L 214.190788 191.867034  L 212.294746 191.867034  z " style="fill:#ff0000;opacity:0.4;" />
   </g>
   <g id="patch_136">
    <path clip-path="url(#p86efd7a83d)" d="M 214.190788 224.64  L 216.08683 224.64  L 216.08683 184.803803  L 214.190788 184.803803  z " style="fill:#ff0000;opacity:0.4;" />
   </g>
   <g id="patch_137">
    <path clip-path="url(#p86efd7a83d)" d="M 216.08683 224.64  L 217.982871 224.64  L 217.982871 177.783314  L 216.08683 177.783314  z " style="fill:#ff0000;opacity:0.4;" />
   </g>
   <g id="patch_138">
    <path clip-path="url(#p86efd7a83d)" d="M 217.982871 224.64  L 219.878913 224.64  L 219.878913 169.146617  L 217.982871 169.146617  z " style="fill:#ff0000;opacity:0.4;" />
   </g>
   <g id="patch_139">
    <path clip-path="url(#p86efd7a83d)" d="M 219.878913 224.64  L 221.774955 224.64  L 221.774955 160.630134  L 219.878913 160.630134  z " style="fill:#ff0000;opacity:0.4;" />
   </g>
   <g id="patch_140">
    <path clip-path="url(#p86efd7a83d)" d="M 221.774955 224.64  L 223.670997 224.64  L 223.670997 150.759242  L 221.774955 150.759242  z " style="fill:#ff0000;opacity:0.4;" />
   </g>
   <g id="patch_141">
    <path clip-path="url(#p86efd7a83d)" d="M 223.670997 224.64  L 225.567039 224.64  L 225.567039 139.686211  L 223.670997 139.686211  z " style="fill:#ff0000;opacity:0.4;" />
   </g>
   <g id="patch_142">
    <path clip-path="url(#p86efd7a83d)" d="M 225.567039 224.64  L 227.463081 224.64  L 227.463081 127.985396  L 225.567039 127.985396  z " style="fill:#ff0000;opacity:0.4;" />
   </g>
   <g id="patch_143">
    <path clip-path="url(#p86efd7a83d)" d="M 227.463081 224.64  L 229.359122 224.64  L 229.359122 116.602481  L 227.463081 116.602481  z " style="fill:#ff0000;opacity:0.4;" />
   </g>
   <g id="patch_144">
    <path clip-path="url(#p86efd7a83d)" d="M 229.359122 224.64  L 231.255164 224.64  L 231.255164 102.983588  L 229.359122 102.983588  z " style="fill:#ff0000;opacity:0.4;" />
   </g>
   <g id="patch_145">
    <path clip-path="url(#p86efd7a83d)" d="M 231.255164 224.64  L 233.151206 224.64  L 233.151206 91.101117  L 231.255164 91.101117  z " style="fill:#ff0000;opacity:0.4;" />
   </g>
   <g id="patch_146">
    <path clip-path="url(#p86efd7a83d)" d="M 233.151206 224.64  L 235.047248 224.64  L 235.047248 79.493802  L 233.151206 79.493802  z " style="fill:#ff0000;opacity:0.4;" />
   </g>
   <g id="patch_147">
    <path clip-path="url(#p86efd7a83d)" d="M 235.047248 224.64  L 236.94329 224.64  L 236.94329 68.557014  L 235.047248 68.557014  z " style="fill:#ff0000;opacity:0.4;" />
   </g>
   <g id="patch_148">
    <path clip-path="url(#p86efd7a83d)" d="M 236.94329 224.64  L 238.839331 224.64  L 238.839331 56.965727  L 236.94329 56.965727  z " style="fill:#ff0000;opacity:0.4;" />
   </g>
   <g id="patch_149">
    <path clip-path="url(#p86efd7a83d)" d="M 238.839331 224.64  L 240.735373 224.64  L 240.735373 46.189224  L 238.839331 46.189224  z " style="fill:#ff0000;opacity:0.4;" />
   </g>
   <g id="patch_150">
    <path clip-path="url(#p86efd7a83d)" d="M 240.735373 224.64  L 242.631415 224.64  L 242.631415 39.355735  L 240.735373 39.355735  z " style="fill:#ff0000;opacity:0.4;" />
   </g>
   <g id="patch_151">
    <path clip-path="url(#p86efd7a83d)" d="M 242.631415 224.64  L 244.527457 224.64  L 244.527457 31.512449  L 242.631415 31.512449  z " style="fill:#ff0000;opacity:0.4;" />
   </g>
   <g id="patch_152">
    <path clip-path="url(#p86efd7a83d)" d="M 244.527457 224.64  L 246.423499 224.64  L 246.423499 25.165158  L 244.527457 25.165158  z " style="fill:#ff0000;opacity:0.4;" />
   </g>
   <g id="patch_153">
    <path clip-path="url(#p86efd7a83d)" d="M 246.423499 224.64  L 248.31954 224.64  L 248.31954 20.094805  L 246.423499 20.094805  z " style="fill:#ff0000;opacity:0.4;" />
   </g>
   <g id="patch_154">
    <path clip-path="url(#p86efd7a83d)" d="M 248.31954 224.64  L 250.215582 224.64  L 250.215582 18.702996  L 248.31954 18.702996  z " style="fill:#ff0000;opacity:0.4;" />
   </g>
   <g id="patch_155">
    <path clip-path="url(#p86efd7a83d)" d="M 250.215582 224.64  L 252.111624 224.64  L 252.111624 17.554286  L 250.215582 17.554286  z " style="fill:#ff0000;opacity:0.4;" />
   </g>
   <g id="patch_156">
    <path clip-path="url(#p86efd7a83d)" d="M 252.111624 224.64  L 254.007666 224.64  L 254.007666 19.010209  L 252.111624 19.010209  z " style="fill:#ff0000;opacity:0.4;" />
   </g>
   <g id="patch_157">
    <path clip-path="url(#p86efd7a83d)" d="M 254.007666 224.64  L 255.903708 224.64  L 255.903708 22.277354  L 254.007666 22.277354  z " style="fill:#ff0000;opacity:0.4;" />
   </g>
   <g id="patch_158">
    <path clip-path="url(#p86efd7a83d)" d="M 255.903708 224.64  L 257.79975 224.64  L 257.79975 28.183861  L 255.903708 28.183861  z " style="fill:#ff0000;opacity:0.4;" />
   </g>
   <g id="patch_159">
    <path clip-path="url(#p86efd7a83d)" d="M 257.79975 224.64  L 259.695791 224.64  L 259.695791 33.863298  L 257.79975 33.863298  z " style="fill:#ff0000;opacity:0.4;" />
   </g>
   <g id="patch_160">
    <path clip-path="url(#p86efd7a83d)" d="M 259.695791 224.64  L 261.591833 224.64  L 261.591833 43.67809  L 259.695791 43.67809  z " style="fill:#ff0000;opacity:0.4;" />
   </g>
   <g id="patch_161">
    <path clip-path="url(#p86efd7a83d)" d="M 261.591833 224.64  L 263.487875 224.64  L 263.487875 53.653168  L 261.591833 53.653168  z " style="fill:#ff0000;opacity:0.4;" />
   </g>
   <g id="patch_162">
    <path clip-path="url(#p86efd7a83d)" d="M 263.487875 224.64  L 265.383917 224.64  L 265.383917 64.095744  L 263.487875 64.095744  z " style="fill:#ff0000;opacity:0.4;" />
   </g>
   <g id="patch_163">
    <path clip-path="url(#p86efd7a83d)" d="M 265.383917 224.64  L 267.279959 224.64  L 267.279959 75.313032  L 265.383917 75.313032  z " style="fill:#ff0000;opacity:0.4;" />
   </g>
   <g id="patch_164">
    <path clip-path="url(#p86efd7a83d)" d="M 267.279959 224.64  L 269.176 224.64  L 269.176 86.110906  L 267.279959 86.110906  z " style="fill:#ff0000;opacity:0.4;" />
   </g>
   <g id="patch_165">
    <path clip-path="url(#p86efd7a83d)" d="M 269.176 224.64  L 271.072042 224.64  L 271.072042 98.736032  L 269.176 98.736032  z " style="fill:#ff0000;opacity:0.4;" />
   </g>
   <g id="patch_166">
    <path clip-path="url(#p86efd7a83d)" d="M 271.072042 224.64  L 272.968084 224.64  L 272.968084 111.187515  L 271.072042 111.187515  z " style="fill:#ff0000;opacity:0.4;" />
   </g>
   <g id="patch_167">
    <path clip-path="url(#p86efd7a83d)" d="M 272.968084 224.64  L 274.864126 224.64  L 274.864126 121.763662  L 272.968084 121.763662  z " style="fill:#ff0000;opacity:0.4;" />
   </g>
   <g id="patch_168">
    <path clip-path="url(#p86efd7a83d)" d="M 274.864126 224.64  L 276.760168 224.64  L 276.760168 133.915946  L 274.864126 133.915946  z " style="fill:#ff0000;opacity:0.4;" />
   </g>
   <g id="patch_169">
    <path clip-path="url(#p86efd7a83d)" d="M 276.760168 224.64  L 278.65621 224.64  L 278.65621 145.590046  L 276.760168 145.590046  z " style="fill:#ff0000;opacity:0.4;" />
   </g>
   <g id="patch_170">
    <path clip-path="url(#p86efd7a83d)" d="M 278.65621 224.64  L 280.552251 224.64  L 280.552251 155.93378  L 278.65621 155.93378  z " style="fill:#ff0000;opacity:0.4;" />
   </g>
   <g id="patch_171">
    <path clip-path="url(#p86efd7a83d)" d="M 280.552251 224.64  L 282.448293 224.64  L 282.448293 165.323817  L 280.552251 165.323817  z " style="fill:#ff0000;opacity:0.4;" />
   </g>
   <g id="patch_172">
    <path clip-path="url(#p86efd7a83d)" d="M 282.448293 224.64  L 284.344335 224.64  L 284.344335 173.957842  L 282.448293 173.957842  z " style="fill:#ff0000;opacity:0.4;" />
   </g>
   <g id="patch_173">
    <path clip-path="url(#p86efd7a83d)" d="M 284.344335 224.64  L 286.240377 224.64  L 286.240377 182.16177  L 284.344335 182.16177  z " style="fill:#ff0000;opacity:0.4;" />
   </g>
   <g id="patch_174">
    <path clip-path="url(#p86efd7a83d)" d="M 286.240377 224.64  L 288.136419 224.64  L 288.136419 189.615028  L 286.240377 189.615028  z " style="fill:#ff0000;opacity:0.4;" />
   </g>
   <g id="patch_175">
    <path clip-path="url(#p86efd7a83d)" d="M 288.136419 224.64  L 290.03246 224.64  L 290.03246 194.704081  L 288.136419 194.704081  z " style="fill:#ff0000;opacity:0.4;" />
   </g>
   <g id="patch_176">
    <path clip-path="url(#p86efd7a83d)" d="M 290.03246 224.64  L 291.928502 224.64  L 291.928502 200.581202  L 290.03246 200.581202  z " style="fill:#ff0000;opacity:0.4;" />
   </g>
   <g id="patch_177">
    <path clip-path="url(#p86efd7a83d)" d="M 291.928502 224.64  L 293.824544 224.64  L 293.824544 204.79403  L 291.928502 204.79403  z " style="fill:#ff0000;opacity:0.4;" />
   </g>
   <g id="patch_178">
    <path clip-path="url(#p86efd7a83d)" d="M 293.824544 224.64  L 295.720586 224.64  L 295.720586 208.405788  L 293.824544 208.405788  z " style="fill:#ff0000;opacity:0.4;" />
   </g>
   <g id="patch_179">
    <path clip-path="url(#p86efd7a83d)" d="M 295.720586 224.64  L 297.616628 224.64  L 297.616628 211.72369  L 295.720586 211.72369  z " style="fill:#ff0000;opacity:0.4;" />
   </g>
   <g id="patch_180">
    <path clip-path="url(#p86efd7a83d)" d="M 297.616628 224.64  L 299.512669 224.64  L 299.512669 214.480594  L 297.616628 214.480594  z " style="fill:#ff0000;opacity:0.4;" />
   </g>
   <g id="patch_181">
    <path clip-path="url(#p86efd7a83d)" d="M 299.512669 224.64  L 301.408711 224.64  L 301.408711 216.588344  L 299.512669 216.588344  z " style="fill:#ff0000;opacity:0.4;" />
   </g>
   <g id="patch_182">
    <path clip-path="url(#p86efd7a83d)" d="M 301.408711 224.64  L 303.304753 224.64  L 303.304753 218.50108  L 301.408711 218.50108  z " style="fill:#ff0000;opacity:0.4;" />
   </g>
   <g id="patch_183">
    <path clip-path="url(#p86efd7a83d)" d="M 303.304753 224.64  L 305.200795 224.64  L 305.200795 219.729932  L 303.304753 219.729932  z " style="fill:#ff0000;opacity:0.4;" />
   </g>
   <g id="patch_184">
    <path clip-path="url(#p86efd7a83d)" d="M 305.200795 224.64  L 307.096837 224.64  L 307.096837 221.054956  L 305.200795 221.054956  z " style="fill:#ff0000;opacity:0.4;" />
   </g>
   <g id="patch_185">
    <path clip-path="url(#p86efd7a83d)" d="M 307.096837 224.64  L 308.992879 224.64  L 308.992879 221.944538  L 307.096837 221.944538  z " style="fill:#ff0000;opacity:0.4;" />
   </g>
   <g id="patch_186">
    <path clip-path="url(#p86efd7a83d)" d="M 308.992879 224.64  L 310.88892 224.64  L 310.88892 222.476151  L 308.992879 222.476151  z " style="fill:#ff0000;opacity:0.4;" />
   </g>
   <g id="patch_187">
    <path clip-path="url(#p86efd7a83d)" d="M 310.88892 224.64  L 312.784962 224.64  L 312.784962 223.03982  L 310.88892 223.03982  z " style="fill:#ff0000;opacity:0.4;" />
   </g>
   <g id="patch_188">
    <path clip-path="url(#p86efd7a83d)" d="M 312.784962 224.64  L 314.681004 224.64  L 314.681004 223.485947  L 312.784962 223.485947  z " style="fill:#ff0000;opacity:0.4;" />
   </g>
   <g id="patch_189">
    <path clip-path="url(#p86efd7a83d)" d="M 314.681004 224.64  L 316.577046 224.64  L 316.577046 223.763775  L 314.681004 223.763775  z " style="fill:#ff0000;opacity:0.4;" />
   </g>
   <g id="patch_190">
    <path clip-path="url(#p86efd7a83d)" d="M 316.577046 224.64  L 318.473088 224.64  L 318.473088 224.135102  L 316.577046 224.135102  z " style="fill:#ff0000;opacity:0.4;" />
   </g>
   <g id="patch_191">
    <path clip-path="url(#p86efd7a83d)" d="M 318.473088 224.64  L 320.369129 224.64  L 320.369129 224.233944  L 318.473088 224.233944  z " style="fill:#ff0000;opacity:0.4;" />
   </g>
   <g id="patch_192">
    <path clip-path="url(#p86efd7a83d)" d="M 320.369129 224.64  L 322.265171 224.64  L 322.265171 224.31943  L 320.369129 224.31943  z " style="fill:#ff0000;opacity:0.4;" />
   </g>
   <g id="patch_193">
    <path clip-path="url(#p86efd7a83d)" d="M 322.265171 224.64  L 324.161213 224.64  L 324.161213 224.402244  L 322.265171 224.402244  z " style="fill:#ff0000;opacity:0.4;" />
   </g>
   <g id="patch_194">
    <path clip-path="url(#p86efd7a83d)" d="M 324.161213 224.64  L 326.057255 224.64  L 326.057255 224.5091  L 324.161213 224.5091  z " style="fill:#ff0000;opacity:0.4;" />
   </g>
   <g id="patch_195">
    <path clip-path="url(#p86efd7a83d)" d="M 326.057255 224.64  L 327.953297 224.64  L 327.953297 224.530472  L 326.057255 224.530472  z " style="fill:#ff0000;opacity:0.4;" />
   </g>
   <g id="patch_196">
    <path clip-path="url(#p86efd7a83d)" d="M 327.953297 224.64  L 329.849339 224.64  L 329.849339 224.597257  L 327.953297 224.597257  z " style="fill:#ff0000;opacity:0.4;" />
   </g>
   <g id="patch_197">
    <path clip-path="url(#p86efd7a83d)" d="M 329.849339 224.64  L 331.74538 224.64  L 331.74538 224.594586  L 329.849339 224.594586  z " style="fill:#ff0000;opacity:0.4;" />
   </g>
   <g id="patch_198">
    <path clip-path="url(#p86efd7a83d)" d="M 331.74538 224.64  L 333.641422 224.64  L 333.641422 224.594586  L 331.74538 224.594586  z " style="fill:#ff0000;opacity:0.4;" />
   </g>
   <g id="patch_199">
    <path clip-path="url(#p86efd7a83d)" d="M 333.641422 224.64  L 335.537464 224.64  L 335.537464 224.634657  L 333.641422 224.634657  z " style="fill:#ff0000;opacity:0.4;" />
   </g>
   <g id="patch_200">
    <path clip-path="url(#p86efd7a83d)" d="M 335.537464 224.64  L 337.433506 224.64  L 337.433506 224.634657  L 335.537464 224.634657  z " style="fill:#ff0000;opacity:0.4;" />
   </g>
   <g id="patch_201">
    <path clip-path="url(#p86efd7a83d)" d="M 337.433506 224.64  L 339.329548 224.64  L 339.329548 224.629314  L 337.433506 224.629314  z " style="fill:#ff0000;opacity:0.4;" />
   </g>
   <g id="patch_202">
    <path clip-path="url(#p86efd7a83d)" d="M 339.329548 224.64  L 341.225589 224.64  L 341.225589 224.637329  L 339.329548 224.637329  z " style="fill:#ff0000;opacity:0.4;" />
   </g>
   <g id="line2d_7">
    <path clip-path="url(#p86efd7a83d)" d="M 278.54 224.64  L 278.54 7.2  " style="fill:none;stroke:#ff0000;stroke-linecap:square;stroke-width:1.5;" />
   </g>
   <g id="patch_203">
    <path d="M 10.7 224.64  L 10.7 7.2  " style="fill:none;stroke:#ffffff;stroke-linecap:square;stroke-linejoin:miter;" />
   </g>
   <g id="patch_204">
    <path d="M 345.5 224.64  L 345.5 7.2  " style="fill:none;stroke:#ffffff;stroke-linecap:square;stroke-linejoin:miter;" />
   </g>
   <g id="patch_205">
    <path d="M 10.7 224.64  L 345.5 224.64  " style="fill:none;stroke:#ffffff;stroke-linecap:square;stroke-linejoin:miter;" />
   </g>
   <g id="patch_206">
    <path d="M 10.7 7.2  L 345.5 7.2  " style="fill:none;stroke:#ffffff;stroke-linecap:square;stroke-linejoin:miter;" />
   </g>
   <g id="legend_1">
    <g id="patch_207">
     <path d="M 17.7 59.234375  L 151.195312 59.234375  Q 153.195312 59.234375 153.195312 57.234375  L 153.195312 14.2  Q 153.195312 12.2 151.195312 12.2  L 17.7 12.2  Q 15.7 12.2 15.7 14.2  L 15.7 57.234375  Q 15.7 59.234375 17.7 59.234375  z " style="fill:#e5e5e5;opacity:0.8;stroke:#cccccc;stroke-linejoin:miter;stroke-width:0.5;" />
    </g>
    <g id="line2d_8">
     <path d="M 19.7 20.298438  L 39.7 20.298438  " style="fill:none;stroke:#ff0000;stroke-linecap:square;stroke-width:1.5;" />
    </g>
    <g id="line2d_9" />
    <g id="text_8">
     <text style="text-anchor:middle;font-family:-apple-system,BlinkMacSystemFont,&quot;Segoe UI&quot;,Roboto,&quot;Helvetica Neue&quot;,Arial,&quot;Noto Sans&quot;,sans-serif,&quot;Apple Color Emoji&quot;,&quot;Segoe UI Emoji&quot;,&quot;Segoe UI Symbol&quot;,&quot;Noto Color Emoji&quot;;font-size:0.7em;color:#6c757d" transform="rotate(-0, 47.7, 23.798438)" x="47.7" y="23.798438">Your Friend's Height</text>
    </g>
    <g id="patch_208">
     <path d="M 19.7 38.476562  L 39.7 38.476562  L 39.7 31.476562  L 19.7 31.476562  z " style="fill:#4b89b9;opacity:0.4;" />
    </g>
    <g id="text_9">
     <text style="text-anchor:middle;font-family:-apple-system,BlinkMacSystemFont,&quot;Segoe UI&quot;,Roboto,&quot;Helvetica Neue&quot;,Arial,&quot;Noto Sans&quot;,sans-serif,&quot;Apple Color Emoji&quot;,&quot;Segoe UI Emoji&quot;,&quot;Segoe UI Symbol&quot;,&quot;Noto Color Emoji&quot;;font-size:0.7em;color:#6c757d" transform="rotate(-0, 47.7, 38.476562)" x="47.7" y="38.476562">all people</text>
    </g>
    <g id="patch_209">
     <path d="M 19.7 53.154688  L 39.7 53.154688  L 39.7 46.154688  L 19.7 46.154688  z " style="fill:#ff0000;opacity:0.4;" />
    </g>
    <g id="text_10">
     <text style="text-anchor:middle;font-family:-apple-system,BlinkMacSystemFont,&quot;Segoe UI&quot;,Roboto,&quot;Helvetica Neue&quot;,Arial,&quot;Noto Sans&quot;,sans-serif,&quot;Apple Color Emoji&quot;,&quot;Segoe UI Emoji&quot;,&quot;Segoe UI Symbol&quot;,&quot;Noto Color Emoji&quot;;font-size:0.7em;color:#6c757d" transform="rotate(-0, 47.7, 53.154688)" x="47.7" y="53.154688">NBA players</text>
    </g>
   </g>
  </g>
 </g>
 <defs>
  <clipPath id="p86efd7a83d">
   <rect height="217.44" width="334.8" x="10.7" y="7.2" />
  </clipPath>
 </defs>
</svg>