<svg xmlns="http://www.w3.org/2000/svg" xmlns:ns1="http://www.w3.org/1999/xlink" height="248.518125pt" version="1.1" viewBox="0 0 352.7 248.518125" width="352.7pt">
 <defs>
  <style type="text/css">
*{stroke-linecap:butt;stroke-linejoin:round;white-space:pre;}
  </style>
 </defs>
 <g id="figure_1">
  <g id="patch_1">
   <path d="M 0 248.518125  L 352.7 248.518125  L 352.7 0  L 0 0  z " style="fill:none;" />
  </g>
  <g id="axes_1">
   <g id="patch_2">
    <path d="M 10.7 224.64  L 345.5 224.64  L 345.5 7.2  L 10.7 7.2  z " style="fill:none;" />
   </g>
   <g id="matplotlib.axis_1">
    <g id="xtick_1">
     <g id="line2d_1">
      <defs>
       <path d="M 0 0  L 0 3.5  " id="ma37ed483ae" style="stroke:#555555;stroke-width:0.8;" />
      </defs>
      <g>
       <use style="fill:#555555;stroke:#555555;stroke-width:0.8;" x="45.286777" y="224.64" ns1:href="#ma37ed483ae" />
      </g>
     </g>
     <g id="text_1">
      <text style="text-anchor:middle;font-family:-apple-system,BlinkMacSystemFont,&quot;Segoe UI&quot;,Roboto,&quot;Helvetica Neue&quot;,Arial,&quot;Noto Sans&quot;,sans-serif,&quot;Apple Color Emoji&quot;,&quot;Segoe UI Emoji&quot;,&quot;Segoe UI Symbol&quot;,&quot;Noto Color Emoji&quot;;font-size:0.7em;color:#6c757d" transform="rotate(-0, 45.286777, 239.238437)" x="45.286777" y="239.238437">1400</text>
     </g>
    </g>
    <g id="xtick_2">
     <g id="line2d_2">
      <g>
       <use style="fill:#555555;stroke:#555555;stroke-width:0.8;" x="91.402479" y="224.64" ns1:href="#ma37ed483ae" />
      </g>
     </g>
     <g id="text_2">
      <text style="text-anchor:middle;font-family:-apple-system,BlinkMacSystemFont,&quot;Segoe UI&quot;,Roboto,&quot;Helvetica Neue&quot;,Arial,&quot;Noto Sans&quot;,sans-serif,&quot;Apple Color Emoji&quot;,&quot;Segoe UI Emoji&quot;,&quot;Segoe UI Symbol&quot;,&quot;Noto Color Emoji&quot;;font-size:0.7em;color:#6c757d" transform="rotate(-0, 91.402479, 239.238437)" x="91.402479" y="239.238437">1500</text>
     </g>
    </g>
    <g id="xtick_3">
     <g id="line2d_3">
      <g>
       <use style="fill:#555555;stroke:#555555;stroke-width:0.8;" x="137.518182" y="224.64" ns1:href="#ma37ed483ae" />
      </g>
     </g>
     <g id="text_3">
      <text style="text-anchor:middle;font-family:-apple-system,BlinkMacSystemFont,&quot;Segoe UI&quot;,Roboto,&quot;Helvetica Neue&quot;,Arial,&quot;Noto Sans&quot;,sans-serif,&quot;Apple Color Emoji&quot;,&quot;Segoe UI Emoji&quot;,&quot;Segoe UI Symbol&quot;,&quot;Noto Color Emoji&quot;;font-size:0.7em;color:#6c757d" transform="rotate(-0, 137.518182, 239.238437)" x="137.518182" y="239.238437">1600</text>
     </g>
    </g>
    <g id="xtick_4">
     <g id="line2d_4">
      <g>
       <use style="fill:#555555;stroke:#555555;stroke-width:0.8;" x="183.633884" y="224.64" ns1:href="#ma37ed483ae" />
      </g>
     </g>
     <g id="text_4">
      <text style="text-anchor:middle;font-family:-apple-system,BlinkMacSystemFont,&quot;Segoe UI&quot;,Roboto,&quot;Helvetica Neue&quot;,Arial,&quot;Noto Sans&quot;,sans-serif,&quot;Apple Color Emoji&quot;,&quot;Segoe UI Emoji&quot;,&quot;Segoe UI Symbol&quot;,&quot;Noto Color Emoji&quot;;font-size:0.7em;color:#6c757d" transform="rotate(-0, 183.633884, 239.238437)" x="183.633884" y="239.238437">1700</text>
     </g>
    </g>
    <g id="xtick_5">
     <g id="line2d_5">
      <g>
       <use style="fill:#555555;stroke:#555555;stroke-width:0.8;" x="229.749587" y="224.64" ns1:href="#ma37ed483ae" />
      </g>
     </g>
     <g id="text_5">
      <text style="text-anchor:middle;font-family:-apple-system,BlinkMacSystemFont,&quot;Segoe UI&quot;,Roboto,&quot;Helvetica Neue&quot;,Arial,&quot;Noto Sans&quot;,sans-serif,&quot;Apple Color Emoji&quot;,&quot;Segoe UI Emoji&quot;,&quot;Segoe UI Symbol&quot;,&quot;Noto Color Emoji&quot;;font-size:0.7em;color:#6c757d" transform="rotate(-0, 229.749587, 239.238437)" x="229.749587" y="239.238437">1800</text>
     </g>
    </g>
    <g id="xtick_6">
     <g id="line2d_6">
      <g>
       <use style="fill:#555555;stroke:#555555;stroke-width:0.8;" x="275.865289" y="224.64" ns1:href="#ma37ed483ae" />
      </g>
     </g>
     <g id="text_6">
      <text style="text-anchor:middle;font-family:-apple-system,BlinkMacSystemFont,&quot;Segoe UI&quot;,Roboto,&quot;Helvetica Neue&quot;,Arial,&quot;Noto Sans&quot;,sans-serif,&quot;Apple Color Emoji&quot;,&quot;Segoe UI Emoji&quot;,&quot;Segoe UI Symbol&quot;,&quot;Noto Color Emoji&quot;;font-size:0.7em;color:#6c757d" transform="rotate(-0, 275.865289, 239.238437)" x="275.865289" y="239.238437">1900</text>
     </g>
    </g>
    <g id="xtick_7">
     <g id="line2d_7">
      <g>
       <use style="fill:#555555;stroke:#555555;stroke-width:0.8;" x="321.980992" y="224.64" ns1:href="#ma37ed483ae" />
      </g>
     </g>
     <g id="text_7">
      <text style="text-anchor:middle;font-family:-apple-system,BlinkMacSystemFont,&quot;Segoe UI&quot;,Roboto,&quot;Helvetica Neue&quot;,Arial,&quot;Noto Sans&quot;,sans-serif,&quot;Apple Color Emoji&quot;,&quot;Segoe UI Emoji&quot;,&quot;Segoe UI Symbol&quot;,&quot;Noto Color Emoji&quot;;font-size:0.7em;color:#6c757d" transform="rotate(-0, 321.980992, 239.238437)" x="321.980992" y="239.238437">2000</text>
     </g>
    </g>
   </g>
   <g id="patch_3">
    <path clip-path="url(#p6f0c59f6ce)" d="M 25.918182 224.64  L 33.527273 224.64  L 33.527273 224.374165  L 25.918182 224.374165  z " style="fill:#4b89b9;opacity:0.4;" />
   </g>
   <g id="patch_4">
    <path clip-path="url(#p6f0c59f6ce)" d="M 33.527273 224.64  L 41.136364 224.64  L 41.136364 224.64  L 33.527273 224.64  z " style="fill:#4b89b9;opacity:0.4;" />
   </g>
   <g id="patch_5">
    <path clip-path="url(#p6f0c59f6ce)" d="M 41.136364 224.64  L 48.745455 224.64  L 48.745455 223.576659  L 41.136364 223.576659  z " style="fill:#4b89b9;opacity:0.4;" />
   </g>
   <g id="patch_6">
    <path clip-path="url(#p6f0c59f6ce)" d="M 48.745455 224.64  L 56.354545 224.64  L 56.354545 224.108329  L 48.745455 224.108329  z " style="fill:#4b89b9;opacity:0.4;" />
   </g>
   <g id="patch_7">
    <path clip-path="url(#p6f0c59f6ce)" d="M 56.354545 224.64  L 63.963636 224.64  L 63.963636 220.65247  L 56.354545 220.65247  z " style="fill:#4b89b9;opacity:0.4;" />
   </g>
   <g id="patch_8">
    <path clip-path="url(#p6f0c59f6ce)" d="M 63.963636 224.64  L 71.572727 224.64  L 71.572727 219.589129  L 63.963636 219.589129  z " style="fill:#4b89b9;opacity:0.4;" />
   </g>
   <g id="patch_9">
    <path clip-path="url(#p6f0c59f6ce)" d="M 71.572727 224.64  L 79.181818 224.64  L 79.181818 220.1208  L 71.572727 220.1208  z " style="fill:#4b89b9;opacity:0.4;" />
   </g>
   <g id="patch_10">
    <path clip-path="url(#p6f0c59f6ce)" d="M 79.181818 224.64  L 86.790909 224.64  L 86.790909 217.994117  L 79.181818 217.994117  z " style="fill:#4b89b9;opacity:0.4;" />
   </g>
   <g id="patch_11">
    <path clip-path="url(#p6f0c59f6ce)" d="M 86.790909 224.64  L 94.4 224.64  L 94.4 208.955716  L 86.790909 208.955716  z " style="fill:#4b89b9;opacity:0.4;" />
   </g>
   <g id="patch_12">
    <path clip-path="url(#p6f0c59f6ce)" d="M 94.4 224.64  L 102.009091 224.64  L 102.009091 207.094869  L 94.4 207.094869  z " style="fill:#4b89b9;opacity:0.4;" />
   </g>
   <g id="patch_13">
    <path clip-path="url(#p6f0c59f6ce)" d="M 102.009091 224.64  L 109.618182 224.64  L 109.618182 183.16969  L 102.009091 183.16969  z " style="fill:#4b89b9;opacity:0.4;" />
   </g>
   <g id="patch_14">
    <path clip-path="url(#p6f0c59f6ce)" d="M 109.618182 224.64  L 117.227273 224.64  L 117.227273 163.763712  L 109.618182 163.763712  z " style="fill:#4b89b9;opacity:0.4;" />
   </g>
   <g id="patch_15">
    <path clip-path="url(#p6f0c59f6ce)" d="M 117.227273 224.64  L 124.836364 224.64  L 124.836364 144.357733  L 117.227273 144.357733  z " style="fill:#4b89b9;opacity:0.4;" />
   </g>
   <g id="patch_16">
    <path clip-path="url(#p6f0c59f6ce)" d="M 124.836364 224.64  L 132.445455 224.64  L 132.445455 123.356743  L 124.836364 123.356743  z " style="fill:#4b89b9;opacity:0.4;" />
   </g>
   <g id="patch_17">
    <path clip-path="url(#p6f0c59f6ce)" d="M 132.445455 224.64  L 140.054545 224.64  L 140.054545 84.544786  L 132.445455 84.544786  z " style="fill:#4b89b9;opacity:0.4;" />
   </g>
   <g id="patch_18">
    <path clip-path="url(#p6f0c59f6ce)" d="M 140.054545 224.64  L 147.663636 224.64  L 147.663636 91.988175  L 140.054545 91.988175  z " style="fill:#4b89b9;opacity:0.4;" />
   </g>
   <g id="patch_19">
    <path clip-path="url(#p6f0c59f6ce)" d="M 147.663636 224.64  L 155.272727 224.64  L 155.272727 50.517865  L 147.663636 50.517865  z " style="fill:#4b89b9;opacity:0.4;" />
   </g>
   <g id="patch_20">
    <path clip-path="url(#p6f0c59f6ce)" d="M 155.272727 224.64  L 162.881818 224.64  L 162.881818 52.112877  L 155.272727 52.112877  z " style="fill:#4b89b9;opacity:0.4;" />
   </g>
   <g id="patch_21">
    <path clip-path="url(#p6f0c59f6ce)" d="M 162.881818 224.64  L 170.490909 224.64  L 170.490909 17.820121  L 162.881818 17.820121  z " style="fill:#4b89b9;opacity:0.4;" />
   </g>
   <g id="patch_22">
    <path clip-path="url(#p6f0c59f6ce)" d="M 170.490909 224.64  L 178.1 224.64  L 178.1 27.124357  L 170.490909 27.124357  z " style="fill:#4b89b9;opacity:0.4;" />
   </g>
   <g id="patch_23">
    <path clip-path="url(#p6f0c59f6ce)" d="M 178.1 224.64  L 185.709091 224.64  L 185.709091 17.554286  L 178.1 17.554286  z " style="fill:#4b89b9;opacity:0.4;" />
   </g>
   <g id="patch_24">
    <path clip-path="url(#p6f0c59f6ce)" d="M 185.709091 224.64  L 193.318182 224.64  L 193.318182 65.138808  L 185.709091 65.138808  z " style="fill:#4b89b9;opacity:0.4;" />
   </g>
   <g id="patch_25">
    <path clip-path="url(#p6f0c59f6ce)" d="M 193.318182 224.64  L 200.927273 224.64  L 200.927273 46.530336  L 193.318182 46.530336  z " style="fill:#4b89b9;opacity:0.4;" />
   </g>
   <g id="patch_26">
    <path clip-path="url(#p6f0c59f6ce)" d="M 200.927273 224.64  L 208.536364 224.64  L 208.536364 80.291421  L 200.927273 80.291421  z " style="fill:#4b89b9;opacity:0.4;" />
   </g>
   <g id="patch_27">
    <path clip-path="url(#p6f0c59f6ce)" d="M 208.536364 224.64  L 216.145455 224.64  L 216.145455 89.595657  L 208.536364 89.595657  z " style="fill:#4b89b9;opacity:0.4;" />
   </g>
   <g id="patch_28">
    <path clip-path="url(#p6f0c59f6ce)" d="M 216.145455 224.64  L 223.754545 224.64  L 223.754545 106.609118  L 216.145455 106.609118  z " style="fill:#4b89b9;opacity:0.4;" />
   </g>
   <g id="patch_29">
    <path clip-path="url(#p6f0c59f6ce)" d="M 223.754545 224.64  L 231.363636 224.64  L 231.363636 139.041027  L 223.754545 139.041027  z " style="fill:#4b89b9;opacity:0.4;" />
   </g>
   <g id="patch_30">
    <path clip-path="url(#p6f0c59f6ce)" d="M 231.363636 224.64  L 238.972727 224.64  L 238.972727 157.383664  L 231.363636 157.383664  z " style="fill:#4b89b9;opacity:0.4;" />
   </g>
   <g id="patch_31">
    <path clip-path="url(#p6f0c59f6ce)" d="M 238.972727 224.64  L 246.581818 224.64  L 246.581818 163.497876  L 238.972727 163.497876  z " style="fill:#4b89b9;opacity:0.4;" />
   </g>
   <g id="patch_32">
    <path clip-path="url(#p6f0c59f6ce)" d="M 246.581818 224.64  L 254.190909 224.64  L 254.190909 185.562208  L 246.581818 185.562208  z " style="fill:#4b89b9;opacity:0.4;" />
   </g>
   <g id="patch_33">
    <path clip-path="url(#p6f0c59f6ce)" d="M 254.190909 224.64  L 261.8 224.64  L 261.8 195.929785  L 254.190909 195.929785  z " style="fill:#4b89b9;opacity:0.4;" />
   </g>
   <g id="patch_34">
    <path clip-path="url(#p6f0c59f6ce)" d="M 261.8 224.64  L 269.409091 224.64  L 269.409091 201.778162  L 261.8 201.778162  z " style="fill:#4b89b9;opacity:0.4;" />
   </g>
   <g id="patch_35">
    <path clip-path="url(#p6f0c59f6ce)" d="M 269.409091 224.64  L 277.018182 224.64  L 277.018182 202.309833  L 269.409091 202.309833  z " style="fill:#4b89b9;opacity:0.4;" />
   </g>
   <g id="patch_36">
    <path clip-path="url(#p6f0c59f6ce)" d="M 277.018182 224.64  L 284.627273 224.64  L 284.627273 215.867434  L 277.018182 215.867434  z " style="fill:#4b89b9;opacity:0.4;" />
   </g>
   <g id="patch_37">
    <path clip-path="url(#p6f0c59f6ce)" d="M 284.627273 224.64  L 292.236364 224.64  L 292.236364 216.66494  L 284.627273 216.66494  z " style="fill:#4b89b9;opacity:0.4;" />
   </g>
   <g id="patch_38">
    <path clip-path="url(#p6f0c59f6ce)" d="M 292.236364 224.64  L 299.845455 224.64  L 299.845455 220.65247  L 292.236364 220.65247  z " style="fill:#4b89b9;opacity:0.4;" />
   </g>
   <g id="patch_39">
    <path clip-path="url(#p6f0c59f6ce)" d="M 299.845455 224.64  L 307.454545 224.64  L 307.454545 222.513317  L 299.845455 222.513317  z " style="fill:#4b89b9;opacity:0.4;" />
   </g>
   <g id="patch_40">
    <path clip-path="url(#p6f0c59f6ce)" d="M 307.454545 224.64  L 315.063636 224.64  L 315.063636 223.576659  L 307.454545 223.576659  z " style="fill:#4b89b9;opacity:0.4;" />
   </g>
   <g id="patch_41">
    <path clip-path="url(#p6f0c59f6ce)" d="M 315.063636 224.64  L 322.672727 224.64  L 322.672727 222.513317  L 315.063636 222.513317  z " style="fill:#4b89b9;opacity:0.4;" />
   </g>
   <g id="patch_42">
    <path clip-path="url(#p6f0c59f6ce)" d="M 322.672727 224.64  L 330.281818 224.64  L 330.281818 224.374165  L 322.672727 224.374165  z " style="fill:#4b89b9;opacity:0.4;" />
   </g>
   <g id="line2d_8">
    <path clip-path="url(#p6f0c59f6ce)" d="M 91.402479 224.64  L 91.402479 7.2  " style="fill:none;stroke:#ff0000;stroke-linecap:square;stroke-width:1.5;" />
   </g>
   <g id="patch_43">
    <path d="M 10.7 224.64  L 10.7 7.2  " style="fill:none;stroke:#ffffff;stroke-linecap:square;stroke-linejoin:miter;" />
   </g>
   <g id="patch_44">
    <path d="M 345.5 224.64  L 345.5 7.2  " style="fill:none;stroke:#ffffff;stroke-linecap:square;stroke-linejoin:miter;" />
   </g>
   <g id="patch_45">
    <path d="M 10.7 224.64  L 345.5 224.64  " style="fill:none;stroke:#ffffff;stroke-linecap:square;stroke-linejoin:miter;" />
   </g>
   <g id="patch_46">
    <path d="M 10.7 7.2  L 345.5 7.2  " style="fill:none;stroke:#ffffff;stroke-linecap:square;stroke-linejoin:miter;" />
   </g>
  </g>
 </g>
 <defs>
  <clipPath id="p6f0c59f6ce">
   <rect height="217.44" width="334.8" x="10.7" y="7.2" />
  </clipPath>
 </defs>
</svg>