<svg xmlns="http://www.w3.org/2000/svg" xmlns:ns1="http://www.w3.org/1999/xlink" height="248.518125pt" version="1.1" viewBox="0 0 357.151251 248.518125" width="357.151251pt">
 <defs>
  <style type="text/css">
*{stroke-linecap:butt;stroke-linejoin:round;white-space:pre;}
  </style>
 </defs>
 <g id="figure_1">
  <g id="patch_1">
   <path d="M 0 248.518125  L 357.151251 248.518125  L 357.151251 0  L 0 0  z " style="fill:none;" />
  </g>
  <g id="axes_1">
   <g id="patch_2">
    <path d="M 15.151251 224.64  L 349.951251 224.64  L 349.951251 7.2  L 15.151251 7.2  z " style="fill:none;" />
   </g>
   <g id="matplotlib.axis_1">
    <g id="xtick_1">
     <g id="line2d_1">
      <defs>
       <path d="M 0 0  L 0 3.5  " id="meed8652d35" style="stroke:#555555;stroke-width:0.8;" />
      </defs>
      <g>
       <use style="fill:#555555;stroke:#555555;stroke-width:0.8;" x="22.522656" y="224.64" ns1:href="#meed8652d35" />
      </g>
     </g>
     <g id="text_1">
      <text style="text-anchor:middle;font-family:-apple-system,BlinkMacSystemFont,&quot;Segoe UI&quot;,Roboto,&quot;Helvetica Neue&quot;,Arial,&quot;Noto Sans&quot;,sans-serif,&quot;Apple Color Emoji&quot;,&quot;Segoe UI Emoji&quot;,&quot;Segoe UI Symbol&quot;,&quot;Noto Color Emoji&quot;;font-size:0.7em;color:#6c757d" transform="rotate(-0, 22.522656, 239.238437)" x="22.522656" y="239.238437">&#8722;0.08</text>
     </g>
    </g>
    <g id="xtick_2">
     <g id="line2d_2">
      <g>
       <use style="fill:#555555;stroke:#555555;stroke-width:0.8;" x="61.756539" y="224.64" ns1:href="#meed8652d35" />
      </g>
     </g>
     <g id="text_2">
      <text style="text-anchor:middle;font-family:-apple-system,BlinkMacSystemFont,&quot;Segoe UI&quot;,Roboto,&quot;Helvetica Neue&quot;,Arial,&quot;Noto Sans&quot;,sans-serif,&quot;Apple Color Emoji&quot;,&quot;Segoe UI Emoji&quot;,&quot;Segoe UI Symbol&quot;,&quot;Noto Color Emoji&quot;;font-size:0.7em;color:#6c757d" transform="rotate(-0, 61.756539, 239.238437)" x="61.756539" y="239.238437">&#8722;0.07</text>
     </g>
    </g>
    <g id="xtick_3">
     <g id="line2d_3">
      <g>
       <use style="fill:#555555;stroke:#555555;stroke-width:0.8;" x="100.990422" y="224.64" ns1:href="#meed8652d35" />
      </g>
     </g>
     <g id="text_3">
      <text style="text-anchor:middle;font-family:-apple-system,BlinkMacSystemFont,&quot;Segoe UI&quot;,Roboto,&quot;Helvetica Neue&quot;,Arial,&quot;Noto Sans&quot;,sans-serif,&quot;Apple Color Emoji&quot;,&quot;Segoe UI Emoji&quot;,&quot;Segoe UI Symbol&quot;,&quot;Noto Color Emoji&quot;;font-size:0.7em;color:#6c757d" transform="rotate(-0, 100.990422, 239.238437)" x="100.990422" y="239.238437">&#8722;0.06</text>
     </g>
    </g>
    <g id="xtick_4">
     <g id="line2d_4">
      <g>
       <use style="fill:#555555;stroke:#555555;stroke-width:0.8;" x="140.224305" y="224.64" ns1:href="#meed8652d35" />
      </g>
     </g>
     <g id="text_4">
      <text style="text-anchor:middle;font-family:-apple-system,BlinkMacSystemFont,&quot;Segoe UI&quot;,Roboto,&quot;Helvetica Neue&quot;,Arial,&quot;Noto Sans&quot;,sans-serif,&quot;Apple Color Emoji&quot;,&quot;Segoe UI Emoji&quot;,&quot;Segoe UI Symbol&quot;,&quot;Noto Color Emoji&quot;;font-size:0.7em;color:#6c757d" transform="rotate(-0, 140.224305, 239.238437)" x="140.224305" y="239.238437">&#8722;0.05</text>
     </g>
    </g>
    <g id="xtick_5">
     <g id="line2d_5">
      <g>
       <use style="fill:#555555;stroke:#555555;stroke-width:0.8;" x="179.458188" y="224.64" ns1:href="#meed8652d35" />
      </g>
     </g>
     <g id="text_5">
      <text style="text-anchor:middle;font-family:-apple-system,BlinkMacSystemFont,&quot;Segoe UI&quot;,Roboto,&quot;Helvetica Neue&quot;,Arial,&quot;Noto Sans&quot;,sans-serif,&quot;Apple Color Emoji&quot;,&quot;Segoe UI Emoji&quot;,&quot;Segoe UI Symbol&quot;,&quot;Noto Color Emoji&quot;;font-size:0.7em;color:#6c757d" transform="rotate(-0, 179.458188, 239.238437)" x="179.458188" y="239.238437">&#8722;0.04</text>
     </g>
    </g>
    <g id="xtick_6">
     <g id="line2d_6">
      <g>
       <use style="fill:#555555;stroke:#555555;stroke-width:0.8;" x="218.692071" y="224.64" ns1:href="#meed8652d35" />
      </g>
     </g>
     <g id="text_6">
      <text style="text-anchor:middle;font-family:-apple-system,BlinkMacSystemFont,&quot;Segoe UI&quot;,Roboto,&quot;Helvetica Neue&quot;,Arial,&quot;Noto Sans&quot;,sans-serif,&quot;Apple Color Emoji&quot;,&quot;Segoe UI Emoji&quot;,&quot;Segoe UI Symbol&quot;,&quot;Noto Color Emoji&quot;;font-size:0.7em;color:#6c757d" transform="rotate(-0, 218.692071, 239.238437)" x="218.692071" y="239.238437">&#8722;0.03</text>
     </g>
    </g>
    <g id="xtick_7">
     <g id="line2d_7">
      <g>
       <use style="fill:#555555;stroke:#555555;stroke-width:0.8;" x="257.925954" y="224.64" ns1:href="#meed8652d35" />
      </g>
     </g>
     <g id="text_7">
      <text style="text-anchor:middle;font-family:-apple-system,BlinkMacSystemFont,&quot;Segoe UI&quot;,Roboto,&quot;Helvetica Neue&quot;,Arial,&quot;Noto Sans&quot;,sans-serif,&quot;Apple Color Emoji&quot;,&quot;Segoe UI Emoji&quot;,&quot;Segoe UI Symbol&quot;,&quot;Noto Color Emoji&quot;;font-size:0.7em;color:#6c757d" transform="rotate(-0, 257.925954, 239.238437)" x="257.925954" y="239.238437">&#8722;0.02</text>
     </g>
    </g>
    <g id="xtick_8">
     <g id="line2d_8">
      <g>
       <use style="fill:#555555;stroke:#555555;stroke-width:0.8;" x="297.159837" y="224.64" ns1:href="#meed8652d35" />
      </g>
     </g>
     <g id="text_8">
      <text style="text-anchor:middle;font-family:-apple-system,BlinkMacSystemFont,&quot;Segoe UI&quot;,Roboto,&quot;Helvetica Neue&quot;,Arial,&quot;Noto Sans&quot;,sans-serif,&quot;Apple Color Emoji&quot;,&quot;Segoe UI Emoji&quot;,&quot;Segoe UI Symbol&quot;,&quot;Noto Color Emoji&quot;;font-size:0.7em;color:#6c757d" transform="rotate(-0, 297.159837, 239.238437)" x="297.159837" y="239.238437">&#8722;0.01</text>
     </g>
    </g>
    <g id="xtick_9">
     <g id="line2d_9">
      <g>
       <use style="fill:#555555;stroke:#555555;stroke-width:0.8;" x="336.393719" y="224.64" ns1:href="#meed8652d35" />
      </g>
     </g>
     <g id="text_9">
      <text style="text-anchor:middle;font-family:-apple-system,BlinkMacSystemFont,&quot;Segoe UI&quot;,Roboto,&quot;Helvetica Neue&quot;,Arial,&quot;Noto Sans&quot;,sans-serif,&quot;Apple Color Emoji&quot;,&quot;Segoe UI Emoji&quot;,&quot;Segoe UI Symbol&quot;,&quot;Noto Color Emoji&quot;;font-size:0.7em;color:#6c757d" transform="rotate(-0, 336.393719, 239.238437)" x="336.393719" y="239.238437">0.00</text>
     </g>
    </g>
   </g>
   <g id="patch_3">
    <path clip-path="url(#pb0c06a9590)" d="M 60.519621 224.64  L 67.374957 224.64  L 67.374957 224.022755  L 60.519621 224.022755  z " style="fill:#4b89b9;opacity:0.4;" />
   </g>
   <g id="patch_4">
    <path clip-path="url(#pb0c06a9590)" d="M 67.374957 224.64  L 74.230293 224.64  L 74.230293 224.64  L 67.374957 224.64  z " style="fill:#4b89b9;opacity:0.4;" />
   </g>
   <g id="patch_5">
    <path clip-path="url(#pb0c06a9590)" d="M 74.230293 224.64  L 81.08563 224.64  L 81.08563 224.022755  L 74.230293 224.022755  z " style="fill:#4b89b9;opacity:0.4;" />
   </g>
   <g id="patch_6">
    <path clip-path="url(#pb0c06a9590)" d="M 81.08563 224.64  L 87.940966 224.64  L 87.940966 223.096887  L 81.08563 223.096887  z " style="fill:#4b89b9;opacity:0.4;" />
   </g>
   <g id="patch_7">
    <path clip-path="url(#pb0c06a9590)" d="M 87.940966 224.64  L 94.796302 224.64  L 94.796302 219.084795  L 87.940966 219.084795  z " style="fill:#4b89b9;opacity:0.4;" />
   </g>
   <g id="patch_8">
    <path clip-path="url(#pb0c06a9590)" d="M 94.796302 224.64  L 101.651638 224.64  L 101.651638 216.924437  L 94.796302 216.924437  z " style="fill:#4b89b9;opacity:0.4;" />
   </g>
   <g id="patch_9">
    <path clip-path="url(#pb0c06a9590)" d="M 101.651638 224.64  L 108.506974 224.64  L 108.506974 217.233059  L 101.651638 217.233059  z " style="fill:#4b89b9;opacity:0.4;" />
   </g>
   <g id="patch_10">
    <path clip-path="url(#pb0c06a9590)" d="M 108.506974 224.64  L 115.362311 224.64  L 115.362311 215.072702  L 108.506974 215.072702  z " style="fill:#4b89b9;opacity:0.4;" />
   </g>
   <g id="patch_11">
    <path clip-path="url(#pb0c06a9590)" d="M 115.362311 224.64  L 122.217647 224.64  L 122.217647 213.220967  L 115.362311 213.220967  z " style="fill:#4b89b9;opacity:0.4;" />
   </g>
   <g id="patch_12">
    <path clip-path="url(#pb0c06a9590)" d="M 122.217647 224.64  L 129.072983 224.64  L 129.072983 201.801933  L 122.217647 201.801933  z " style="fill:#4b89b9;opacity:0.4;" />
   </g>
   <g id="patch_13">
    <path clip-path="url(#pb0c06a9590)" d="M 129.072983 224.64  L 135.928319 224.64  L 135.928319 204.270913  L 129.072983 204.270913  z " style="fill:#4b89b9;opacity:0.4;" />
   </g>
   <g id="patch_14">
    <path clip-path="url(#pb0c06a9590)" d="M 135.928319 224.64  L 142.783655 224.64  L 142.783655 190.3829  L 135.928319 190.3829  z " style="fill:#4b89b9;opacity:0.4;" />
   </g>
   <g id="patch_15">
    <path clip-path="url(#pb0c06a9590)" d="M 142.783655 224.64  L 149.638992 224.64  L 149.638992 166.310343  L 142.783655 166.310343  z " style="fill:#4b89b9;opacity:0.4;" />
   </g>
   <g id="patch_16">
    <path clip-path="url(#pb0c06a9590)" d="M 149.638992 224.64  L 156.494328 224.64  L 156.494328 178.655244  L 149.638992 178.655244  z " style="fill:#4b89b9;opacity:0.4;" />
   </g>
   <g id="patch_17">
    <path clip-path="url(#pb0c06a9590)" d="M 156.494328 224.64  L 163.349664 224.64  L 163.349664 146.249879  L 156.494328 146.249879  z " style="fill:#4b89b9;opacity:0.4;" />
   </g>
   <g id="patch_18">
    <path clip-path="url(#pb0c06a9590)" d="M 163.349664 224.64  L 170.205 224.64  L 170.205 165.384475  L 163.349664 165.384475  z " style="fill:#4b89b9;opacity:0.4;" />
   </g>
   <g id="patch_19">
    <path clip-path="url(#pb0c06a9590)" d="M 170.205 224.64  L 177.060336 224.64  L 177.060336 113.535891  L 170.205 113.535891  z " style="fill:#4b89b9;opacity:0.4;" />
   </g>
   <g id="patch_20">
    <path clip-path="url(#pb0c06a9590)" d="M 177.060336 224.64  L 183.915673 224.64  L 183.915673 94.709917  L 177.060336 94.709917  z " style="fill:#4b89b9;opacity:0.4;" />
   </g>
   <g id="patch_21">
    <path clip-path="url(#pb0c06a9590)" d="M 183.915673 224.64  L 190.771009 224.64  L 190.771009 59.526949  L 183.915673 59.526949  z " style="fill:#4b89b9;opacity:0.4;" />
   </g>
   <g id="patch_22">
    <path clip-path="url(#pb0c06a9590)" d="M 190.771009 224.64  L 197.626345 224.64  L 197.626345 32.985412  L 190.771009 32.985412  z " style="fill:#4b89b9;opacity:0.4;" />
   </g>
   <g id="patch_23">
    <path clip-path="url(#pb0c06a9590)" d="M 197.626345 224.64  L 204.481681 224.64  L 204.481681 61.687307  L 197.626345 61.687307  z " style="fill:#4b89b9;opacity:0.4;" />
   </g>
   <g id="patch_24">
    <path clip-path="url(#pb0c06a9590)" d="M 204.481681 224.64  L 211.337018 224.64  L 211.337018 36.071637  L 204.481681 36.071637  z " style="fill:#4b89b9;opacity:0.4;" />
   </g>
   <g id="patch_25">
    <path clip-path="url(#pb0c06a9590)" d="M 211.337018 224.64  L 218.192354 224.64  L 218.192354 17.554286  L 211.337018 17.554286  z " style="fill:#4b89b9;opacity:0.4;" />
   </g>
   <g id="patch_26">
    <path clip-path="url(#pb0c06a9590)" d="M 218.192354 224.64  L 225.04769 224.64  L 225.04769 58.601082  L 218.192354 58.601082  z " style="fill:#4b89b9;opacity:0.4;" />
   </g>
   <g id="patch_27">
    <path clip-path="url(#pb0c06a9590)" d="M 225.04769 224.64  L 231.903026 224.64  L 231.903026 36.071637  L 225.04769 36.071637  z " style="fill:#4b89b9;opacity:0.4;" />
   </g>
   <g id="patch_28">
    <path clip-path="url(#pb0c06a9590)" d="M 231.903026 224.64  L 238.758362 224.64  L 238.758362 25.887094  L 231.903026 25.887094  z " style="fill:#4b89b9;opacity:0.4;" />
   </g>
   <g id="patch_29">
    <path clip-path="url(#pb0c06a9590)" d="M 238.758362 224.64  L 245.613699 224.64  L 245.613699 65.6994  L 238.758362 65.6994  z " style="fill:#4b89b9;opacity:0.4;" />
   </g>
   <g id="patch_30">
    <path clip-path="url(#pb0c06a9590)" d="M 245.613699 224.64  L 252.469035 224.64  L 252.469035 64.773532  L 245.613699 64.773532  z " style="fill:#4b89b9;opacity:0.4;" />
   </g>
   <g id="patch_31">
    <path clip-path="url(#pb0c06a9590)" d="M 252.469035 224.64  L 259.324371 224.64  L 259.324371 92.240937  L 252.469035 92.240937  z " style="fill:#4b89b9;opacity:0.4;" />
   </g>
   <g id="patch_32">
    <path clip-path="url(#pb0c06a9590)" d="M 259.324371 224.64  L 266.179707 224.64  L 266.179707 92.240937  L 259.324371 92.240937  z " style="fill:#4b89b9;opacity:0.4;" />
   </g>
   <g id="patch_33">
    <path clip-path="url(#pb0c06a9590)" d="M 266.179707 224.64  L 273.035043 224.64  L 273.035043 132.670488  L 266.179707 132.670488  z " style="fill:#4b89b9;opacity:0.4;" />
   </g>
   <g id="patch_34">
    <path clip-path="url(#pb0c06a9590)" d="M 273.035043 224.64  L 279.89038 224.64  L 279.89038 153.039574  L 273.035043 153.039574  z " style="fill:#4b89b9;opacity:0.4;" />
   </g>
   <g id="patch_35">
    <path clip-path="url(#pb0c06a9590)" d="M 279.89038 224.64  L 286.745716 224.64  L 286.745716 138.225693  L 279.89038 138.225693  z " style="fill:#4b89b9;opacity:0.4;" />
   </g>
   <g id="patch_36">
    <path clip-path="url(#pb0c06a9590)" d="M 286.745716 224.64  L 293.601052 224.64  L 293.601052 152.730952  L 286.745716 152.730952  z " style="fill:#4b89b9;opacity:0.4;" />
   </g>
   <g id="patch_37">
    <path clip-path="url(#pb0c06a9590)" d="M 293.601052 224.64  L 300.456388 224.64  L 300.456388 165.693098  L 293.601052 165.693098  z " style="fill:#4b89b9;opacity:0.4;" />
   </g>
   <g id="patch_38">
    <path clip-path="url(#pb0c06a9590)" d="M 300.456388 224.64  L 307.311724 224.64  L 307.311724 195.629483  L 300.456388 195.629483  z " style="fill:#4b89b9;opacity:0.4;" />
   </g>
   <g id="patch_39">
    <path clip-path="url(#pb0c06a9590)" d="M 307.311724 224.64  L 314.167061 224.64  L 314.167061 209.517496  L 307.311724 209.517496  z " style="fill:#4b89b9;opacity:0.4;" />
   </g>
   <g id="patch_40">
    <path clip-path="url(#pb0c06a9590)" d="M 314.167061 224.64  L 321.022397 224.64  L 321.022397 222.479642  L 314.167061 222.479642  z " style="fill:#4b89b9;opacity:0.4;" />
   </g>
   <g id="patch_41">
    <path clip-path="url(#pb0c06a9590)" d="M 321.022397 224.64  L 327.877733 224.64  L 327.877733 224.022755  L 321.022397 224.022755  z " style="fill:#4b89b9;opacity:0.4;" />
   </g>
   <g id="patch_42">
    <path clip-path="url(#pb0c06a9590)" d="M 327.877733 224.64  L 334.733069 224.64  L 334.733069 223.40551  L 327.877733 223.40551  z " style="fill:#4b89b9;opacity:0.4;" />
   </g>
   <g id="line2d_10">
    <path clip-path="url(#pb0c06a9590)" d="M 30.369433 224.64  L 30.369433 7.2  " style="fill:none;stroke:#ff0000;stroke-linecap:square;stroke-width:1.5;" />
   </g>
   <g id="patch_43">
    <path d="M 15.151251 224.64  L 15.151251 7.2  " style="fill:none;stroke:#ffffff;stroke-linecap:square;stroke-linejoin:miter;" />
   </g>
   <g id="patch_44">
    <path d="M 349.951251 224.64  L 349.951251 7.2  " style="fill:none;stroke:#ffffff;stroke-linecap:square;stroke-linejoin:miter;" />
   </g>
   <g id="patch_45">
    <path d="M 15.151251 224.64  L 349.951251 224.64  " style="fill:none;stroke:#ffffff;stroke-linecap:square;stroke-linejoin:miter;" />
   </g>
   <g id="patch_46">
    <path d="M 15.151251 7.2  L 349.951251 7.2  " style="fill:none;stroke:#ffffff;stroke-linecap:square;stroke-linejoin:miter;" />
   </g>
  </g>
 </g>
 <defs>
  <clipPath id="pb0c06a9590">
   <rect height="217.44" width="334.8" x="15.151251" y="7.2" />
  </clipPath>
 </defs>
</svg>